%TF.GenerationSoftware,KiCad,Pcbnew,(5.1.6)-1*%
%TF.CreationDate,2020-09-26T17:15:15+05:30*%
%TF.ProjectId,ENC28J60_Dev_Board,454e4332-384a-4363-905f-4465765f426f,rev?*%
%TF.SameCoordinates,Original*%
%TF.FileFunction,Copper,L2,Bot*%
%TF.FilePolarity,Positive*%
%FSLAX46Y46*%
G04 Gerber Fmt 4.6, Leading zero omitted, Abs format (unit mm)*
G04 Created by KiCad (PCBNEW (5.1.6)-1) date 2020-09-26 17:15:15*
%MOMM*%
%LPD*%
G01*
G04 APERTURE LIST*
%TA.AperFunction,ComponentPad*%
%ADD10C,6.400000*%
%TD*%
%TA.AperFunction,ComponentPad*%
%ADD11C,0.800000*%
%TD*%
%TA.AperFunction,ComponentPad*%
%ADD12R,1.900000X1.900000*%
%TD*%
%TA.AperFunction,ComponentPad*%
%ADD13C,1.900000*%
%TD*%
%TA.AperFunction,ComponentPad*%
%ADD14C,1.890000*%
%TD*%
%TA.AperFunction,ComponentPad*%
%ADD15C,2.600000*%
%TD*%
%TA.AperFunction,ComponentPad*%
%ADD16R,1.700000X1.700000*%
%TD*%
%TA.AperFunction,ComponentPad*%
%ADD17O,1.700000X1.700000*%
%TD*%
%TA.AperFunction,ViaPad*%
%ADD18C,0.800000*%
%TD*%
%TA.AperFunction,Conductor*%
%ADD19C,0.250000*%
%TD*%
%TA.AperFunction,Conductor*%
%ADD20C,0.200000*%
%TD*%
%TA.AperFunction,Conductor*%
%ADD21C,0.254000*%
%TD*%
G04 APERTURE END LIST*
D10*
%TO.P,H1,1*%
%TO.N,N/C*%
X87000000Y-109000000D03*
D11*
X84600000Y-109000000D03*
X85302944Y-107302944D03*
X87000000Y-106600000D03*
X88697056Y-107302944D03*
X89400000Y-109000000D03*
X88697056Y-110697056D03*
X87000000Y-111400000D03*
X85302944Y-110697056D03*
%TD*%
%TO.P,H2,1*%
%TO.N,N/C*%
X143052944Y-110947056D03*
X144750000Y-111650000D03*
X146447056Y-110947056D03*
X147150000Y-109250000D03*
X146447056Y-107552944D03*
X144750000Y-106850000D03*
X143052944Y-107552944D03*
X142350000Y-109250000D03*
D10*
X144750000Y-109250000D03*
%TD*%
%TO.P,H3,1*%
%TO.N,N/C*%
X144750000Y-80000000D03*
D11*
X147150000Y-80000000D03*
X146447056Y-81697056D03*
X144750000Y-82400000D03*
X143052944Y-81697056D03*
X142350000Y-80000000D03*
X143052944Y-78302944D03*
X144750000Y-77600000D03*
X146447056Y-78302944D03*
%TD*%
%TO.P,H4,1*%
%TO.N,N/C*%
X88697056Y-78102944D03*
X87000000Y-77400000D03*
X85302944Y-78102944D03*
X84600000Y-79800000D03*
X85302944Y-81497056D03*
X87000000Y-82200000D03*
X88697056Y-81497056D03*
X89400000Y-79800000D03*
D10*
X87000000Y-79800000D03*
%TD*%
D12*
%TO.P,J1,R1*%
%TO.N,TD+*%
X103700000Y-89700000D03*
D13*
%TO.P,J1,R2*%
%TO.N,TD-*%
X106240000Y-90970000D03*
%TO.P,J1,R3*%
%TO.N,RD+*%
X103700000Y-92240000D03*
%TO.P,J1,R4*%
%TO.N,+3V3*%
X106240000Y-93510000D03*
%TO.P,J1,R5*%
X103700000Y-94780000D03*
%TO.P,J1,R6*%
%TO.N,RD-*%
X106240000Y-96050000D03*
%TO.P,J1,R7*%
%TO.N,Net-(J1-PadR7)*%
X103700000Y-97320000D03*
%TO.P,J1,R8*%
%TO.N,GND*%
X106240000Y-98590000D03*
D14*
%TO.P,J1,L1*%
%TO.N,LEDB*%
X93980000Y-100470000D03*
%TO.P,J1,L2*%
%TO.N,Net-(J1-PadL2)*%
X92460000Y-97930000D03*
%TO.P,J1,L3*%
%TO.N,Net-(J1-PadL3)*%
X93980000Y-90360000D03*
%TO.P,J1,L4*%
%TO.N,LEDA*%
X92460000Y-87820000D03*
D15*
%TO.P,J1,13*%
%TO.N,GND*%
X100410000Y-86370000D03*
X100410000Y-101920000D03*
%TD*%
D16*
%TO.P,J2,1*%
%TO.N,+3V3*%
X139750000Y-91250000D03*
D17*
%TO.P,J2,2*%
%TO.N,MOSI*%
X142290000Y-91250000D03*
%TO.P,J2,3*%
%TO.N,MISO*%
X139750000Y-93790000D03*
%TO.P,J2,4*%
%TO.N,SCK*%
X142290000Y-93790000D03*
%TO.P,J2,5*%
%TO.N,RESET*%
X139750000Y-96330000D03*
%TO.P,J2,6*%
%TO.N,INT*%
X142290000Y-96330000D03*
%TO.P,J2,7*%
%TO.N,nCS*%
X139750000Y-98870000D03*
%TO.P,J2,8*%
%TO.N,GND*%
X142290000Y-98870000D03*
%TD*%
D18*
%TO.N,+3V3*%
X121750000Y-100750000D03*
X129750000Y-97250000D03*
X131250000Y-95750000D03*
X119250000Y-85500000D03*
X112250000Y-87000000D03*
X113750000Y-87250000D03*
X115250000Y-87500000D03*
X116750000Y-87500000D03*
X118500000Y-87250000D03*
X121600000Y-98400000D03*
X121200000Y-94350000D03*
%TO.N,GND*%
X117000000Y-92600000D03*
%TO.N,TD-*%
X108250000Y-89500000D03*
%TO.N,RD+*%
X116618812Y-91638724D03*
X114000000Y-94200000D03*
%TO.N,RD-*%
X120000000Y-91500000D03*
X114600000Y-95000000D03*
%TO.N,Net-(J1-PadL2)*%
X92750000Y-103000000D03*
%TO.N,SCK*%
X135687347Y-93112653D03*
X126552829Y-89513523D03*
%TO.N,RESET*%
X136100000Y-94900000D03*
X124600000Y-88600000D03*
%TO.N,nCS*%
X134800000Y-96400000D03*
X125200000Y-89600000D03*
%TD*%
D19*
%TO.N,TD-*%
X106780000Y-90970000D02*
X106240000Y-90970000D01*
X108250000Y-89500000D02*
X106780000Y-90970000D01*
D20*
%TO.N,RD+*%
X114057536Y-94200000D02*
X114000000Y-94200000D01*
X114493812Y-93763724D02*
X114057536Y-94200000D01*
X116618812Y-91638724D02*
X114493812Y-93763724D01*
%TO.N,RD-*%
X116500000Y-95000000D02*
X114600000Y-95000000D01*
X120000000Y-91500000D02*
X116500000Y-95000000D01*
D19*
%TO.N,Net-(J1-PadL2)*%
X92350001Y-98039999D02*
X92460000Y-97930000D01*
X92350001Y-102600001D02*
X92350001Y-98039999D01*
X92750000Y-103000000D02*
X92350001Y-102600001D01*
%TO.N,SCK*%
X135687347Y-93112653D02*
X132174694Y-89600000D01*
X132174694Y-89600000D02*
X126639306Y-89600000D01*
X126639306Y-89600000D02*
X126552829Y-89513523D01*
%TO.N,RESET*%
X136499999Y-94500001D02*
X136499999Y-91499999D01*
X136100000Y-94900000D02*
X136499999Y-94500001D01*
X136499999Y-91499999D02*
X133600000Y-88600000D01*
X133600000Y-88600000D02*
X124600000Y-88600000D01*
%TO.N,nCS*%
X125838524Y-90238524D02*
X125200000Y-89600000D01*
X134800000Y-96400000D02*
X128638524Y-90238524D01*
X128638524Y-90238524D02*
X125838524Y-90238524D01*
%TD*%
D21*
%TO.N,+3V3*%
G36*
X107727387Y-82602651D02*
G01*
X107746207Y-82612710D01*
X107788104Y-82625420D01*
X107798612Y-82629360D01*
X107819128Y-82634831D01*
X107870617Y-82650450D01*
X107881853Y-82651557D01*
X107892756Y-82654464D01*
X107946428Y-82657917D01*
X107967581Y-82660000D01*
X107978814Y-82660000D01*
X108022496Y-82662810D01*
X108043644Y-82660000D01*
X123956356Y-82660000D01*
X123977504Y-82662810D01*
X124021186Y-82660000D01*
X124032419Y-82660000D01*
X124053573Y-82657917D01*
X124107243Y-82654464D01*
X124118145Y-82651557D01*
X124129383Y-82650450D01*
X124180885Y-82634827D01*
X124201386Y-82629360D01*
X124211885Y-82625423D01*
X124253793Y-82612710D01*
X124272617Y-82602648D01*
X140119682Y-76660000D01*
X142845845Y-76660000D01*
X142305330Y-77021161D01*
X141771161Y-77555330D01*
X141351467Y-78183446D01*
X141062377Y-78881372D01*
X140915000Y-79622285D01*
X140915000Y-80377715D01*
X141062377Y-81118628D01*
X141351467Y-81816554D01*
X141771161Y-82444670D01*
X142305330Y-82978839D01*
X142933446Y-83398533D01*
X143631372Y-83687623D01*
X144372285Y-83835000D01*
X145127715Y-83835000D01*
X145868628Y-83687623D01*
X146566554Y-83398533D01*
X147194670Y-82978839D01*
X147728839Y-82444670D01*
X148148533Y-81816554D01*
X148340000Y-81354311D01*
X148340001Y-107895691D01*
X148148533Y-107433446D01*
X147728839Y-106805330D01*
X147194670Y-106271161D01*
X146566554Y-105851467D01*
X145868628Y-105562377D01*
X145127715Y-105415000D01*
X144372285Y-105415000D01*
X143631372Y-105562377D01*
X142933446Y-105851467D01*
X142305330Y-106271161D01*
X141771161Y-106805330D01*
X141351467Y-107433446D01*
X141062377Y-108131372D01*
X140915000Y-108872285D01*
X140915000Y-109627715D01*
X141062377Y-110368628D01*
X141351467Y-111066554D01*
X141771161Y-111694670D01*
X142305330Y-112228839D01*
X142471694Y-112340000D01*
X140119682Y-112340000D01*
X124272617Y-106397352D01*
X124253793Y-106387290D01*
X124211885Y-106374577D01*
X124201386Y-106370640D01*
X124180885Y-106365173D01*
X124129383Y-106349550D01*
X124118145Y-106348443D01*
X124107243Y-106345536D01*
X124053573Y-106342083D01*
X124032419Y-106340000D01*
X124021186Y-106340000D01*
X123977504Y-106337190D01*
X123956356Y-106340000D01*
X108043644Y-106340000D01*
X108022496Y-106337190D01*
X107978814Y-106340000D01*
X107967581Y-106340000D01*
X107946428Y-106342083D01*
X107892756Y-106345536D01*
X107881853Y-106348443D01*
X107870617Y-106349550D01*
X107819128Y-106365169D01*
X107798612Y-106370640D01*
X107788104Y-106374580D01*
X107746207Y-106387290D01*
X107727387Y-106397349D01*
X91880320Y-112340000D01*
X88904155Y-112340000D01*
X89444670Y-111978839D01*
X89978839Y-111444670D01*
X90398533Y-110816554D01*
X90687623Y-110118628D01*
X90835000Y-109377715D01*
X90835000Y-108622285D01*
X90687623Y-107881372D01*
X90398533Y-107183446D01*
X89978839Y-106555330D01*
X89444670Y-106021161D01*
X88816554Y-105601467D01*
X88118628Y-105312377D01*
X87377715Y-105165000D01*
X86622285Y-105165000D01*
X85881372Y-105312377D01*
X85183446Y-105601467D01*
X84555330Y-106021161D01*
X84021161Y-106555330D01*
X83660000Y-107095845D01*
X83660000Y-97774384D01*
X90880000Y-97774384D01*
X90880000Y-98085616D01*
X90940718Y-98390869D01*
X91059822Y-98678411D01*
X91232734Y-98937191D01*
X91452809Y-99157266D01*
X91590002Y-99248936D01*
X91590001Y-102562678D01*
X91586325Y-102600001D01*
X91590001Y-102637323D01*
X91590001Y-102637333D01*
X91600998Y-102748986D01*
X91644455Y-102892247D01*
X91715000Y-103024226D01*
X91715000Y-103101939D01*
X91754774Y-103301898D01*
X91832795Y-103490256D01*
X91946063Y-103659774D01*
X92090226Y-103803937D01*
X92259744Y-103917205D01*
X92448102Y-103995226D01*
X92648061Y-104035000D01*
X92851939Y-104035000D01*
X93051898Y-103995226D01*
X93240256Y-103917205D01*
X93409774Y-103803937D01*
X93553937Y-103659774D01*
X93667205Y-103490256D01*
X93745226Y-103301898D01*
X93785000Y-103101939D01*
X93785000Y-102898061D01*
X93745226Y-102698102D01*
X93667205Y-102509744D01*
X93553937Y-102340226D01*
X93409774Y-102196063D01*
X93240256Y-102082795D01*
X93110001Y-102028841D01*
X93110001Y-101788935D01*
X93231589Y-101870178D01*
X93519131Y-101989282D01*
X93824384Y-102050000D01*
X94135616Y-102050000D01*
X94440869Y-101989282D01*
X94728411Y-101870178D01*
X94987191Y-101697266D01*
X95207266Y-101477191D01*
X95380178Y-101218411D01*
X95445006Y-101061902D01*
X95604544Y-101300666D01*
X95919334Y-101615456D01*
X96289489Y-101862786D01*
X96700782Y-102033149D01*
X97137409Y-102120000D01*
X97582591Y-102120000D01*
X98019218Y-102033149D01*
X98430511Y-101862786D01*
X98475000Y-101833059D01*
X98475000Y-102110581D01*
X98549361Y-102484419D01*
X98695225Y-102836566D01*
X98906987Y-103153491D01*
X99176509Y-103423013D01*
X99493434Y-103634775D01*
X99845581Y-103780639D01*
X100219419Y-103855000D01*
X100600581Y-103855000D01*
X100974419Y-103780639D01*
X101326566Y-103634775D01*
X101643491Y-103423013D01*
X101913013Y-103153491D01*
X102124775Y-102836566D01*
X102270639Y-102484419D01*
X102345000Y-102110581D01*
X102345000Y-101729419D01*
X102270639Y-101355581D01*
X102124775Y-101003434D01*
X101913013Y-100686509D01*
X101643491Y-100416987D01*
X101326566Y-100205225D01*
X100974419Y-100059361D01*
X100600581Y-99985000D01*
X100219419Y-99985000D01*
X99845581Y-100059361D01*
X99604781Y-100159104D01*
X99620000Y-100082591D01*
X99620000Y-99637409D01*
X99533149Y-99200782D01*
X99362786Y-98789489D01*
X99115456Y-98419334D01*
X98800666Y-98104544D01*
X98430511Y-97857214D01*
X98019218Y-97686851D01*
X97582591Y-97600000D01*
X97137409Y-97600000D01*
X96700782Y-97686851D01*
X96289489Y-97857214D01*
X95919334Y-98104544D01*
X95604544Y-98419334D01*
X95357214Y-98789489D01*
X95186851Y-99200782D01*
X95146765Y-99402308D01*
X94987191Y-99242734D01*
X94728411Y-99069822D01*
X94440869Y-98950718D01*
X94135616Y-98890000D01*
X93824384Y-98890000D01*
X93702614Y-98914221D01*
X93860178Y-98678411D01*
X93979282Y-98390869D01*
X94040000Y-98085616D01*
X94040000Y-97774384D01*
X93979282Y-97469131D01*
X93860178Y-97181589D01*
X93687266Y-96922809D01*
X93467191Y-96702734D01*
X93208411Y-96529822D01*
X92920869Y-96410718D01*
X92615616Y-96350000D01*
X92304384Y-96350000D01*
X91999131Y-96410718D01*
X91711589Y-96529822D01*
X91452809Y-96702734D01*
X91232734Y-96922809D01*
X91059822Y-97181589D01*
X90940718Y-97469131D01*
X90880000Y-97774384D01*
X83660000Y-97774384D01*
X83660000Y-94844573D01*
X102108641Y-94844573D01*
X102151816Y-95153791D01*
X102254487Y-95448644D01*
X102340958Y-95610421D01*
X102600248Y-95700147D01*
X103520395Y-94780000D01*
X102600248Y-93859853D01*
X102340958Y-93949579D01*
X102205065Y-94230671D01*
X102126621Y-94532873D01*
X102108641Y-94844573D01*
X83660000Y-94844573D01*
X83660000Y-87664384D01*
X90880000Y-87664384D01*
X90880000Y-87975616D01*
X90940718Y-88280869D01*
X91059822Y-88568411D01*
X91232734Y-88827191D01*
X91452809Y-89047266D01*
X91711589Y-89220178D01*
X91999131Y-89339282D01*
X92304384Y-89400000D01*
X92615616Y-89400000D01*
X92737386Y-89375779D01*
X92579822Y-89611589D01*
X92460718Y-89899131D01*
X92400000Y-90204384D01*
X92400000Y-90515616D01*
X92460718Y-90820869D01*
X92579822Y-91108411D01*
X92752734Y-91367191D01*
X92972809Y-91587266D01*
X93231589Y-91760178D01*
X93519131Y-91879282D01*
X93824384Y-91940000D01*
X94135616Y-91940000D01*
X94440869Y-91879282D01*
X94728411Y-91760178D01*
X94987191Y-91587266D01*
X95207266Y-91367191D01*
X95380178Y-91108411D01*
X95499282Y-90820869D01*
X95560000Y-90515616D01*
X95560000Y-90204384D01*
X95499282Y-89899131D01*
X95380178Y-89611589D01*
X95207266Y-89352809D01*
X94987191Y-89132734D01*
X94728411Y-88959822D01*
X94440869Y-88840718D01*
X94135616Y-88780000D01*
X93824384Y-88780000D01*
X93702614Y-88804221D01*
X93860178Y-88568411D01*
X93979282Y-88280869D01*
X93993893Y-88207409D01*
X95100000Y-88207409D01*
X95100000Y-88652591D01*
X95186851Y-89089218D01*
X95357214Y-89500511D01*
X95604544Y-89870666D01*
X95919334Y-90185456D01*
X96289489Y-90432786D01*
X96700782Y-90603149D01*
X97137409Y-90690000D01*
X97582591Y-90690000D01*
X98019218Y-90603149D01*
X98430511Y-90432786D01*
X98800666Y-90185456D01*
X99115456Y-89870666D01*
X99362786Y-89500511D01*
X99533149Y-89089218D01*
X99600624Y-88750000D01*
X102111928Y-88750000D01*
X102111928Y-90650000D01*
X102124188Y-90774482D01*
X102160498Y-90894180D01*
X102219463Y-91004494D01*
X102298815Y-91101185D01*
X102395506Y-91180537D01*
X102475289Y-91223182D01*
X102468850Y-91229621D01*
X102295391Y-91489221D01*
X102175911Y-91777673D01*
X102115000Y-92083891D01*
X102115000Y-92396109D01*
X102175911Y-92702327D01*
X102295391Y-92990779D01*
X102468850Y-93250379D01*
X102689621Y-93471150D01*
X102821676Y-93559387D01*
X102779853Y-93680248D01*
X103700000Y-94600395D01*
X103714143Y-94586253D01*
X103893748Y-94765858D01*
X103879605Y-94780000D01*
X103893748Y-94794143D01*
X103714143Y-94973748D01*
X103700000Y-94959605D01*
X102779853Y-95879752D01*
X102821676Y-96000613D01*
X102689621Y-96088850D01*
X102468850Y-96309621D01*
X102295391Y-96569221D01*
X102175911Y-96857673D01*
X102115000Y-97163891D01*
X102115000Y-97476109D01*
X102175911Y-97782327D01*
X102295391Y-98070779D01*
X102468850Y-98330379D01*
X102689621Y-98551150D01*
X102949221Y-98724609D01*
X103237673Y-98844089D01*
X103543891Y-98905000D01*
X103856109Y-98905000D01*
X104162327Y-98844089D01*
X104450779Y-98724609D01*
X104655000Y-98588153D01*
X104655000Y-98746109D01*
X104715911Y-99052327D01*
X104835391Y-99340779D01*
X105008850Y-99600379D01*
X105229621Y-99821150D01*
X105489221Y-99994609D01*
X105777673Y-100114089D01*
X106083891Y-100175000D01*
X106396109Y-100175000D01*
X106702327Y-100114089D01*
X106990779Y-99994609D01*
X107250379Y-99821150D01*
X107471150Y-99600379D01*
X107644609Y-99340779D01*
X107764089Y-99052327D01*
X107825000Y-98746109D01*
X107825000Y-98433891D01*
X107764089Y-98127673D01*
X107644609Y-97839221D01*
X107471150Y-97579621D01*
X107250379Y-97358850D01*
X107192236Y-97320000D01*
X107250379Y-97281150D01*
X107471150Y-97060379D01*
X107644609Y-96800779D01*
X107764089Y-96512327D01*
X107825000Y-96206109D01*
X107825000Y-95893891D01*
X107764089Y-95587673D01*
X107644609Y-95299221D01*
X107471150Y-95039621D01*
X107250379Y-94818850D01*
X107118324Y-94730613D01*
X107160147Y-94609752D01*
X106240000Y-93689605D01*
X106225858Y-93703748D01*
X106046253Y-93524143D01*
X106060395Y-93510000D01*
X106419605Y-93510000D01*
X107339752Y-94430147D01*
X107599042Y-94340421D01*
X107716210Y-94098061D01*
X112965000Y-94098061D01*
X112965000Y-94301939D01*
X113004774Y-94501898D01*
X113082795Y-94690256D01*
X113196063Y-94859774D01*
X113340226Y-95003937D01*
X113509744Y-95117205D01*
X113573271Y-95143519D01*
X113604774Y-95301898D01*
X113682795Y-95490256D01*
X113796063Y-95659774D01*
X113940226Y-95803937D01*
X114109744Y-95917205D01*
X114298102Y-95995226D01*
X114498061Y-96035000D01*
X114701939Y-96035000D01*
X114901898Y-95995226D01*
X115090256Y-95917205D01*
X115259774Y-95803937D01*
X115328711Y-95735000D01*
X116463895Y-95735000D01*
X116500000Y-95738556D01*
X116536105Y-95735000D01*
X116644085Y-95724365D01*
X116782633Y-95682337D01*
X116910320Y-95614087D01*
X117022238Y-95522238D01*
X117045259Y-95494187D01*
X120004447Y-92535000D01*
X120101939Y-92535000D01*
X120301898Y-92495226D01*
X120490256Y-92417205D01*
X120659774Y-92303937D01*
X120803937Y-92159774D01*
X120917205Y-91990256D01*
X120995226Y-91801898D01*
X121035000Y-91601939D01*
X121035000Y-91398061D01*
X120995226Y-91198102D01*
X120917205Y-91009744D01*
X120803937Y-90840226D01*
X120659774Y-90696063D01*
X120490256Y-90582795D01*
X120301898Y-90504774D01*
X120101939Y-90465000D01*
X119898061Y-90465000D01*
X119698102Y-90504774D01*
X119509744Y-90582795D01*
X119340226Y-90696063D01*
X119196063Y-90840226D01*
X119082795Y-91009744D01*
X119004774Y-91198102D01*
X118965000Y-91398061D01*
X118965000Y-91495553D01*
X118022970Y-92437583D01*
X117995226Y-92298102D01*
X117917205Y-92109744D01*
X117803937Y-91940226D01*
X117659774Y-91796063D01*
X117644785Y-91786047D01*
X117653812Y-91740663D01*
X117653812Y-91536785D01*
X117614038Y-91336826D01*
X117536017Y-91148468D01*
X117422749Y-90978950D01*
X117278586Y-90834787D01*
X117109068Y-90721519D01*
X116920710Y-90643498D01*
X116720751Y-90603724D01*
X116516873Y-90603724D01*
X116316914Y-90643498D01*
X116128556Y-90721519D01*
X115959038Y-90834787D01*
X115814875Y-90978950D01*
X115701607Y-91148468D01*
X115623586Y-91336826D01*
X115583812Y-91536785D01*
X115583812Y-91634277D01*
X114053090Y-93165000D01*
X113898061Y-93165000D01*
X113698102Y-93204774D01*
X113509744Y-93282795D01*
X113340226Y-93396063D01*
X113196063Y-93540226D01*
X113082795Y-93709744D01*
X113004774Y-93898102D01*
X112965000Y-94098061D01*
X107716210Y-94098061D01*
X107734935Y-94059329D01*
X107813379Y-93757127D01*
X107831359Y-93445427D01*
X107788184Y-93136209D01*
X107685513Y-92841356D01*
X107599042Y-92679579D01*
X107339752Y-92589853D01*
X106419605Y-93510000D01*
X106060395Y-93510000D01*
X106046253Y-93495858D01*
X106225858Y-93316253D01*
X106240000Y-93330395D01*
X107160147Y-92410248D01*
X107118324Y-92289387D01*
X107250379Y-92201150D01*
X107471150Y-91980379D01*
X107644609Y-91720779D01*
X107764089Y-91432327D01*
X107825000Y-91126109D01*
X107825000Y-90999801D01*
X108289802Y-90535000D01*
X108351939Y-90535000D01*
X108551898Y-90495226D01*
X108740256Y-90417205D01*
X108909774Y-90303937D01*
X109053937Y-90159774D01*
X109167205Y-89990256D01*
X109245226Y-89801898D01*
X109285000Y-89601939D01*
X109285000Y-89398061D01*
X109245226Y-89198102D01*
X109167205Y-89009744D01*
X109053937Y-88840226D01*
X108909774Y-88696063D01*
X108740256Y-88582795D01*
X108551898Y-88504774D01*
X108518150Y-88498061D01*
X123565000Y-88498061D01*
X123565000Y-88701939D01*
X123604774Y-88901898D01*
X123682795Y-89090256D01*
X123796063Y-89259774D01*
X123940226Y-89403937D01*
X124109744Y-89517205D01*
X124165000Y-89540093D01*
X124165000Y-89701939D01*
X124204774Y-89901898D01*
X124282795Y-90090256D01*
X124396063Y-90259774D01*
X124540226Y-90403937D01*
X124709744Y-90517205D01*
X124898102Y-90595226D01*
X125098061Y-90635000D01*
X125160198Y-90635000D01*
X125274724Y-90749526D01*
X125298523Y-90778525D01*
X125414248Y-90873498D01*
X125546277Y-90944070D01*
X125689538Y-90987527D01*
X125801191Y-90998524D01*
X125801200Y-90998524D01*
X125838523Y-91002200D01*
X125875846Y-90998524D01*
X128323723Y-90998524D01*
X133765000Y-96439802D01*
X133765000Y-96501939D01*
X133804774Y-96701898D01*
X133882795Y-96890256D01*
X133996063Y-97059774D01*
X134140226Y-97203937D01*
X134309744Y-97317205D01*
X134498102Y-97395226D01*
X134698061Y-97435000D01*
X134901939Y-97435000D01*
X135101898Y-97395226D01*
X135290256Y-97317205D01*
X135459774Y-97203937D01*
X135603937Y-97059774D01*
X135717205Y-96890256D01*
X135795226Y-96701898D01*
X135835000Y-96501939D01*
X135835000Y-96298061D01*
X135795226Y-96098102D01*
X135717205Y-95909744D01*
X135672834Y-95843338D01*
X135798102Y-95895226D01*
X135998061Y-95935000D01*
X136201939Y-95935000D01*
X136401898Y-95895226D01*
X136590256Y-95817205D01*
X136759774Y-95703937D01*
X136903937Y-95559774D01*
X137017205Y-95390256D01*
X137095226Y-95201898D01*
X137135000Y-95001939D01*
X137135000Y-94924226D01*
X137205545Y-94792248D01*
X137249002Y-94648987D01*
X137259999Y-94537334D01*
X137259999Y-94537324D01*
X137263675Y-94500002D01*
X137259999Y-94462679D01*
X137259999Y-92100000D01*
X138261928Y-92100000D01*
X138274188Y-92224482D01*
X138310498Y-92344180D01*
X138369463Y-92454494D01*
X138448815Y-92551185D01*
X138545506Y-92630537D01*
X138655820Y-92689502D01*
X138728380Y-92711513D01*
X138596525Y-92843368D01*
X138434010Y-93086589D01*
X138322068Y-93356842D01*
X138265000Y-93643740D01*
X138265000Y-93936260D01*
X138322068Y-94223158D01*
X138434010Y-94493411D01*
X138596525Y-94736632D01*
X138803368Y-94943475D01*
X138977760Y-95060000D01*
X138803368Y-95176525D01*
X138596525Y-95383368D01*
X138434010Y-95626589D01*
X138322068Y-95896842D01*
X138265000Y-96183740D01*
X138265000Y-96476260D01*
X138322068Y-96763158D01*
X138434010Y-97033411D01*
X138596525Y-97276632D01*
X138803368Y-97483475D01*
X138977760Y-97600000D01*
X138803368Y-97716525D01*
X138596525Y-97923368D01*
X138434010Y-98166589D01*
X138322068Y-98436842D01*
X138265000Y-98723740D01*
X138265000Y-99016260D01*
X138322068Y-99303158D01*
X138434010Y-99573411D01*
X138596525Y-99816632D01*
X138803368Y-100023475D01*
X139046589Y-100185990D01*
X139316842Y-100297932D01*
X139603740Y-100355000D01*
X139896260Y-100355000D01*
X140183158Y-100297932D01*
X140453411Y-100185990D01*
X140696632Y-100023475D01*
X140903475Y-99816632D01*
X141020000Y-99642240D01*
X141136525Y-99816632D01*
X141343368Y-100023475D01*
X141586589Y-100185990D01*
X141856842Y-100297932D01*
X142143740Y-100355000D01*
X142436260Y-100355000D01*
X142723158Y-100297932D01*
X142993411Y-100185990D01*
X143236632Y-100023475D01*
X143443475Y-99816632D01*
X143605990Y-99573411D01*
X143717932Y-99303158D01*
X143775000Y-99016260D01*
X143775000Y-98723740D01*
X143717932Y-98436842D01*
X143605990Y-98166589D01*
X143443475Y-97923368D01*
X143236632Y-97716525D01*
X143062240Y-97600000D01*
X143236632Y-97483475D01*
X143443475Y-97276632D01*
X143605990Y-97033411D01*
X143717932Y-96763158D01*
X143775000Y-96476260D01*
X143775000Y-96183740D01*
X143717932Y-95896842D01*
X143605990Y-95626589D01*
X143443475Y-95383368D01*
X143236632Y-95176525D01*
X143062240Y-95060000D01*
X143236632Y-94943475D01*
X143443475Y-94736632D01*
X143605990Y-94493411D01*
X143717932Y-94223158D01*
X143775000Y-93936260D01*
X143775000Y-93643740D01*
X143717932Y-93356842D01*
X143605990Y-93086589D01*
X143443475Y-92843368D01*
X143236632Y-92636525D01*
X143062240Y-92520000D01*
X143236632Y-92403475D01*
X143443475Y-92196632D01*
X143605990Y-91953411D01*
X143717932Y-91683158D01*
X143775000Y-91396260D01*
X143775000Y-91103740D01*
X143717932Y-90816842D01*
X143605990Y-90546589D01*
X143443475Y-90303368D01*
X143236632Y-90096525D01*
X142993411Y-89934010D01*
X142723158Y-89822068D01*
X142436260Y-89765000D01*
X142143740Y-89765000D01*
X141856842Y-89822068D01*
X141586589Y-89934010D01*
X141343368Y-90096525D01*
X141211513Y-90228380D01*
X141189502Y-90155820D01*
X141130537Y-90045506D01*
X141051185Y-89948815D01*
X140954494Y-89869463D01*
X140844180Y-89810498D01*
X140724482Y-89774188D01*
X140600000Y-89761928D01*
X140035750Y-89765000D01*
X139877000Y-89923750D01*
X139877000Y-91123000D01*
X139897000Y-91123000D01*
X139897000Y-91377000D01*
X139877000Y-91377000D01*
X139877000Y-91397000D01*
X139623000Y-91397000D01*
X139623000Y-91377000D01*
X138423750Y-91377000D01*
X138265000Y-91535750D01*
X138261928Y-92100000D01*
X137259999Y-92100000D01*
X137259999Y-91537322D01*
X137263675Y-91499999D01*
X137259999Y-91462676D01*
X137259999Y-91462666D01*
X137249002Y-91351013D01*
X137205545Y-91207752D01*
X137173857Y-91148468D01*
X137134973Y-91075722D01*
X137063798Y-90988996D01*
X137040000Y-90959998D01*
X137011002Y-90936200D01*
X136474802Y-90400000D01*
X138261928Y-90400000D01*
X138265000Y-90964250D01*
X138423750Y-91123000D01*
X139623000Y-91123000D01*
X139623000Y-89923750D01*
X139464250Y-89765000D01*
X138900000Y-89761928D01*
X138775518Y-89774188D01*
X138655820Y-89810498D01*
X138545506Y-89869463D01*
X138448815Y-89948815D01*
X138369463Y-90045506D01*
X138310498Y-90155820D01*
X138274188Y-90275518D01*
X138261928Y-90400000D01*
X136474802Y-90400000D01*
X134163804Y-88089003D01*
X134140001Y-88059999D01*
X134024276Y-87965026D01*
X133892247Y-87894454D01*
X133748986Y-87850997D01*
X133637333Y-87840000D01*
X133637322Y-87840000D01*
X133600000Y-87836324D01*
X133562678Y-87840000D01*
X125303711Y-87840000D01*
X125259774Y-87796063D01*
X125090256Y-87682795D01*
X124901898Y-87604774D01*
X124701939Y-87565000D01*
X124498061Y-87565000D01*
X124298102Y-87604774D01*
X124109744Y-87682795D01*
X123940226Y-87796063D01*
X123796063Y-87940226D01*
X123682795Y-88109744D01*
X123604774Y-88298102D01*
X123565000Y-88498061D01*
X108518150Y-88498061D01*
X108351939Y-88465000D01*
X108148061Y-88465000D01*
X107948102Y-88504774D01*
X107759744Y-88582795D01*
X107590226Y-88696063D01*
X107446063Y-88840226D01*
X107332795Y-89009744D01*
X107254774Y-89198102D01*
X107215000Y-89398061D01*
X107215000Y-89460198D01*
X107062131Y-89613067D01*
X106990779Y-89565391D01*
X106702327Y-89445911D01*
X106396109Y-89385000D01*
X106083891Y-89385000D01*
X105777673Y-89445911D01*
X105489221Y-89565391D01*
X105288072Y-89699794D01*
X105288072Y-88750000D01*
X105275812Y-88625518D01*
X105239502Y-88505820D01*
X105180537Y-88395506D01*
X105101185Y-88298815D01*
X105004494Y-88219463D01*
X104894180Y-88160498D01*
X104774482Y-88124188D01*
X104650000Y-88111928D01*
X102750000Y-88111928D01*
X102625518Y-88124188D01*
X102505820Y-88160498D01*
X102395506Y-88219463D01*
X102298815Y-88298815D01*
X102219463Y-88395506D01*
X102160498Y-88505820D01*
X102124188Y-88625518D01*
X102111928Y-88750000D01*
X99600624Y-88750000D01*
X99620000Y-88652591D01*
X99620000Y-88207409D01*
X99604781Y-88130896D01*
X99845581Y-88230639D01*
X100219419Y-88305000D01*
X100600581Y-88305000D01*
X100974419Y-88230639D01*
X101326566Y-88084775D01*
X101643491Y-87873013D01*
X101913013Y-87603491D01*
X102124775Y-87286566D01*
X102270639Y-86934419D01*
X102345000Y-86560581D01*
X102345000Y-86179419D01*
X102270639Y-85805581D01*
X102124775Y-85453434D01*
X101913013Y-85136509D01*
X101643491Y-84866987D01*
X101326566Y-84655225D01*
X100974419Y-84509361D01*
X100600581Y-84435000D01*
X100219419Y-84435000D01*
X99845581Y-84509361D01*
X99493434Y-84655225D01*
X99176509Y-84866987D01*
X98906987Y-85136509D01*
X98695225Y-85453434D01*
X98549361Y-85805581D01*
X98475000Y-86179419D01*
X98475000Y-86456941D01*
X98430511Y-86427214D01*
X98019218Y-86256851D01*
X97582591Y-86170000D01*
X97137409Y-86170000D01*
X96700782Y-86256851D01*
X96289489Y-86427214D01*
X95919334Y-86674544D01*
X95604544Y-86989334D01*
X95357214Y-87359489D01*
X95186851Y-87770782D01*
X95100000Y-88207409D01*
X93993893Y-88207409D01*
X94040000Y-87975616D01*
X94040000Y-87664384D01*
X93979282Y-87359131D01*
X93860178Y-87071589D01*
X93687266Y-86812809D01*
X93467191Y-86592734D01*
X93208411Y-86419822D01*
X92920869Y-86300718D01*
X92615616Y-86240000D01*
X92304384Y-86240000D01*
X91999131Y-86300718D01*
X91711589Y-86419822D01*
X91452809Y-86592734D01*
X91232734Y-86812809D01*
X91059822Y-87071589D01*
X90940718Y-87359131D01*
X90880000Y-87664384D01*
X83660000Y-87664384D01*
X83660000Y-81704155D01*
X84021161Y-82244670D01*
X84555330Y-82778839D01*
X85183446Y-83198533D01*
X85881372Y-83487623D01*
X86622285Y-83635000D01*
X87377715Y-83635000D01*
X88118628Y-83487623D01*
X88816554Y-83198533D01*
X89444670Y-82778839D01*
X89978839Y-82244670D01*
X90398533Y-81616554D01*
X90687623Y-80918628D01*
X90835000Y-80177715D01*
X90835000Y-79422285D01*
X90687623Y-78681372D01*
X90398533Y-77983446D01*
X89978839Y-77355330D01*
X89444670Y-76821161D01*
X89203476Y-76660000D01*
X91880320Y-76660000D01*
X107727387Y-82602651D01*
G37*
X107727387Y-82602651D02*
X107746207Y-82612710D01*
X107788104Y-82625420D01*
X107798612Y-82629360D01*
X107819128Y-82634831D01*
X107870617Y-82650450D01*
X107881853Y-82651557D01*
X107892756Y-82654464D01*
X107946428Y-82657917D01*
X107967581Y-82660000D01*
X107978814Y-82660000D01*
X108022496Y-82662810D01*
X108043644Y-82660000D01*
X123956356Y-82660000D01*
X123977504Y-82662810D01*
X124021186Y-82660000D01*
X124032419Y-82660000D01*
X124053573Y-82657917D01*
X124107243Y-82654464D01*
X124118145Y-82651557D01*
X124129383Y-82650450D01*
X124180885Y-82634827D01*
X124201386Y-82629360D01*
X124211885Y-82625423D01*
X124253793Y-82612710D01*
X124272617Y-82602648D01*
X140119682Y-76660000D01*
X142845845Y-76660000D01*
X142305330Y-77021161D01*
X141771161Y-77555330D01*
X141351467Y-78183446D01*
X141062377Y-78881372D01*
X140915000Y-79622285D01*
X140915000Y-80377715D01*
X141062377Y-81118628D01*
X141351467Y-81816554D01*
X141771161Y-82444670D01*
X142305330Y-82978839D01*
X142933446Y-83398533D01*
X143631372Y-83687623D01*
X144372285Y-83835000D01*
X145127715Y-83835000D01*
X145868628Y-83687623D01*
X146566554Y-83398533D01*
X147194670Y-82978839D01*
X147728839Y-82444670D01*
X148148533Y-81816554D01*
X148340000Y-81354311D01*
X148340001Y-107895691D01*
X148148533Y-107433446D01*
X147728839Y-106805330D01*
X147194670Y-106271161D01*
X146566554Y-105851467D01*
X145868628Y-105562377D01*
X145127715Y-105415000D01*
X144372285Y-105415000D01*
X143631372Y-105562377D01*
X142933446Y-105851467D01*
X142305330Y-106271161D01*
X141771161Y-106805330D01*
X141351467Y-107433446D01*
X141062377Y-108131372D01*
X140915000Y-108872285D01*
X140915000Y-109627715D01*
X141062377Y-110368628D01*
X141351467Y-111066554D01*
X141771161Y-111694670D01*
X142305330Y-112228839D01*
X142471694Y-112340000D01*
X140119682Y-112340000D01*
X124272617Y-106397352D01*
X124253793Y-106387290D01*
X124211885Y-106374577D01*
X124201386Y-106370640D01*
X124180885Y-106365173D01*
X124129383Y-106349550D01*
X124118145Y-106348443D01*
X124107243Y-106345536D01*
X124053573Y-106342083D01*
X124032419Y-106340000D01*
X124021186Y-106340000D01*
X123977504Y-106337190D01*
X123956356Y-106340000D01*
X108043644Y-106340000D01*
X108022496Y-106337190D01*
X107978814Y-106340000D01*
X107967581Y-106340000D01*
X107946428Y-106342083D01*
X107892756Y-106345536D01*
X107881853Y-106348443D01*
X107870617Y-106349550D01*
X107819128Y-106365169D01*
X107798612Y-106370640D01*
X107788104Y-106374580D01*
X107746207Y-106387290D01*
X107727387Y-106397349D01*
X91880320Y-112340000D01*
X88904155Y-112340000D01*
X89444670Y-111978839D01*
X89978839Y-111444670D01*
X90398533Y-110816554D01*
X90687623Y-110118628D01*
X90835000Y-109377715D01*
X90835000Y-108622285D01*
X90687623Y-107881372D01*
X90398533Y-107183446D01*
X89978839Y-106555330D01*
X89444670Y-106021161D01*
X88816554Y-105601467D01*
X88118628Y-105312377D01*
X87377715Y-105165000D01*
X86622285Y-105165000D01*
X85881372Y-105312377D01*
X85183446Y-105601467D01*
X84555330Y-106021161D01*
X84021161Y-106555330D01*
X83660000Y-107095845D01*
X83660000Y-97774384D01*
X90880000Y-97774384D01*
X90880000Y-98085616D01*
X90940718Y-98390869D01*
X91059822Y-98678411D01*
X91232734Y-98937191D01*
X91452809Y-99157266D01*
X91590002Y-99248936D01*
X91590001Y-102562678D01*
X91586325Y-102600001D01*
X91590001Y-102637323D01*
X91590001Y-102637333D01*
X91600998Y-102748986D01*
X91644455Y-102892247D01*
X91715000Y-103024226D01*
X91715000Y-103101939D01*
X91754774Y-103301898D01*
X91832795Y-103490256D01*
X91946063Y-103659774D01*
X92090226Y-103803937D01*
X92259744Y-103917205D01*
X92448102Y-103995226D01*
X92648061Y-104035000D01*
X92851939Y-104035000D01*
X93051898Y-103995226D01*
X93240256Y-103917205D01*
X93409774Y-103803937D01*
X93553937Y-103659774D01*
X93667205Y-103490256D01*
X93745226Y-103301898D01*
X93785000Y-103101939D01*
X93785000Y-102898061D01*
X93745226Y-102698102D01*
X93667205Y-102509744D01*
X93553937Y-102340226D01*
X93409774Y-102196063D01*
X93240256Y-102082795D01*
X93110001Y-102028841D01*
X93110001Y-101788935D01*
X93231589Y-101870178D01*
X93519131Y-101989282D01*
X93824384Y-102050000D01*
X94135616Y-102050000D01*
X94440869Y-101989282D01*
X94728411Y-101870178D01*
X94987191Y-101697266D01*
X95207266Y-101477191D01*
X95380178Y-101218411D01*
X95445006Y-101061902D01*
X95604544Y-101300666D01*
X95919334Y-101615456D01*
X96289489Y-101862786D01*
X96700782Y-102033149D01*
X97137409Y-102120000D01*
X97582591Y-102120000D01*
X98019218Y-102033149D01*
X98430511Y-101862786D01*
X98475000Y-101833059D01*
X98475000Y-102110581D01*
X98549361Y-102484419D01*
X98695225Y-102836566D01*
X98906987Y-103153491D01*
X99176509Y-103423013D01*
X99493434Y-103634775D01*
X99845581Y-103780639D01*
X100219419Y-103855000D01*
X100600581Y-103855000D01*
X100974419Y-103780639D01*
X101326566Y-103634775D01*
X101643491Y-103423013D01*
X101913013Y-103153491D01*
X102124775Y-102836566D01*
X102270639Y-102484419D01*
X102345000Y-102110581D01*
X102345000Y-101729419D01*
X102270639Y-101355581D01*
X102124775Y-101003434D01*
X101913013Y-100686509D01*
X101643491Y-100416987D01*
X101326566Y-100205225D01*
X100974419Y-100059361D01*
X100600581Y-99985000D01*
X100219419Y-99985000D01*
X99845581Y-100059361D01*
X99604781Y-100159104D01*
X99620000Y-100082591D01*
X99620000Y-99637409D01*
X99533149Y-99200782D01*
X99362786Y-98789489D01*
X99115456Y-98419334D01*
X98800666Y-98104544D01*
X98430511Y-97857214D01*
X98019218Y-97686851D01*
X97582591Y-97600000D01*
X97137409Y-97600000D01*
X96700782Y-97686851D01*
X96289489Y-97857214D01*
X95919334Y-98104544D01*
X95604544Y-98419334D01*
X95357214Y-98789489D01*
X95186851Y-99200782D01*
X95146765Y-99402308D01*
X94987191Y-99242734D01*
X94728411Y-99069822D01*
X94440869Y-98950718D01*
X94135616Y-98890000D01*
X93824384Y-98890000D01*
X93702614Y-98914221D01*
X93860178Y-98678411D01*
X93979282Y-98390869D01*
X94040000Y-98085616D01*
X94040000Y-97774384D01*
X93979282Y-97469131D01*
X93860178Y-97181589D01*
X93687266Y-96922809D01*
X93467191Y-96702734D01*
X93208411Y-96529822D01*
X92920869Y-96410718D01*
X92615616Y-96350000D01*
X92304384Y-96350000D01*
X91999131Y-96410718D01*
X91711589Y-96529822D01*
X91452809Y-96702734D01*
X91232734Y-96922809D01*
X91059822Y-97181589D01*
X90940718Y-97469131D01*
X90880000Y-97774384D01*
X83660000Y-97774384D01*
X83660000Y-94844573D01*
X102108641Y-94844573D01*
X102151816Y-95153791D01*
X102254487Y-95448644D01*
X102340958Y-95610421D01*
X102600248Y-95700147D01*
X103520395Y-94780000D01*
X102600248Y-93859853D01*
X102340958Y-93949579D01*
X102205065Y-94230671D01*
X102126621Y-94532873D01*
X102108641Y-94844573D01*
X83660000Y-94844573D01*
X83660000Y-87664384D01*
X90880000Y-87664384D01*
X90880000Y-87975616D01*
X90940718Y-88280869D01*
X91059822Y-88568411D01*
X91232734Y-88827191D01*
X91452809Y-89047266D01*
X91711589Y-89220178D01*
X91999131Y-89339282D01*
X92304384Y-89400000D01*
X92615616Y-89400000D01*
X92737386Y-89375779D01*
X92579822Y-89611589D01*
X92460718Y-89899131D01*
X92400000Y-90204384D01*
X92400000Y-90515616D01*
X92460718Y-90820869D01*
X92579822Y-91108411D01*
X92752734Y-91367191D01*
X92972809Y-91587266D01*
X93231589Y-91760178D01*
X93519131Y-91879282D01*
X93824384Y-91940000D01*
X94135616Y-91940000D01*
X94440869Y-91879282D01*
X94728411Y-91760178D01*
X94987191Y-91587266D01*
X95207266Y-91367191D01*
X95380178Y-91108411D01*
X95499282Y-90820869D01*
X95560000Y-90515616D01*
X95560000Y-90204384D01*
X95499282Y-89899131D01*
X95380178Y-89611589D01*
X95207266Y-89352809D01*
X94987191Y-89132734D01*
X94728411Y-88959822D01*
X94440869Y-88840718D01*
X94135616Y-88780000D01*
X93824384Y-88780000D01*
X93702614Y-88804221D01*
X93860178Y-88568411D01*
X93979282Y-88280869D01*
X93993893Y-88207409D01*
X95100000Y-88207409D01*
X95100000Y-88652591D01*
X95186851Y-89089218D01*
X95357214Y-89500511D01*
X95604544Y-89870666D01*
X95919334Y-90185456D01*
X96289489Y-90432786D01*
X96700782Y-90603149D01*
X97137409Y-90690000D01*
X97582591Y-90690000D01*
X98019218Y-90603149D01*
X98430511Y-90432786D01*
X98800666Y-90185456D01*
X99115456Y-89870666D01*
X99362786Y-89500511D01*
X99533149Y-89089218D01*
X99600624Y-88750000D01*
X102111928Y-88750000D01*
X102111928Y-90650000D01*
X102124188Y-90774482D01*
X102160498Y-90894180D01*
X102219463Y-91004494D01*
X102298815Y-91101185D01*
X102395506Y-91180537D01*
X102475289Y-91223182D01*
X102468850Y-91229621D01*
X102295391Y-91489221D01*
X102175911Y-91777673D01*
X102115000Y-92083891D01*
X102115000Y-92396109D01*
X102175911Y-92702327D01*
X102295391Y-92990779D01*
X102468850Y-93250379D01*
X102689621Y-93471150D01*
X102821676Y-93559387D01*
X102779853Y-93680248D01*
X103700000Y-94600395D01*
X103714143Y-94586253D01*
X103893748Y-94765858D01*
X103879605Y-94780000D01*
X103893748Y-94794143D01*
X103714143Y-94973748D01*
X103700000Y-94959605D01*
X102779853Y-95879752D01*
X102821676Y-96000613D01*
X102689621Y-96088850D01*
X102468850Y-96309621D01*
X102295391Y-96569221D01*
X102175911Y-96857673D01*
X102115000Y-97163891D01*
X102115000Y-97476109D01*
X102175911Y-97782327D01*
X102295391Y-98070779D01*
X102468850Y-98330379D01*
X102689621Y-98551150D01*
X102949221Y-98724609D01*
X103237673Y-98844089D01*
X103543891Y-98905000D01*
X103856109Y-98905000D01*
X104162327Y-98844089D01*
X104450779Y-98724609D01*
X104655000Y-98588153D01*
X104655000Y-98746109D01*
X104715911Y-99052327D01*
X104835391Y-99340779D01*
X105008850Y-99600379D01*
X105229621Y-99821150D01*
X105489221Y-99994609D01*
X105777673Y-100114089D01*
X106083891Y-100175000D01*
X106396109Y-100175000D01*
X106702327Y-100114089D01*
X106990779Y-99994609D01*
X107250379Y-99821150D01*
X107471150Y-99600379D01*
X107644609Y-99340779D01*
X107764089Y-99052327D01*
X107825000Y-98746109D01*
X107825000Y-98433891D01*
X107764089Y-98127673D01*
X107644609Y-97839221D01*
X107471150Y-97579621D01*
X107250379Y-97358850D01*
X107192236Y-97320000D01*
X107250379Y-97281150D01*
X107471150Y-97060379D01*
X107644609Y-96800779D01*
X107764089Y-96512327D01*
X107825000Y-96206109D01*
X107825000Y-95893891D01*
X107764089Y-95587673D01*
X107644609Y-95299221D01*
X107471150Y-95039621D01*
X107250379Y-94818850D01*
X107118324Y-94730613D01*
X107160147Y-94609752D01*
X106240000Y-93689605D01*
X106225858Y-93703748D01*
X106046253Y-93524143D01*
X106060395Y-93510000D01*
X106419605Y-93510000D01*
X107339752Y-94430147D01*
X107599042Y-94340421D01*
X107716210Y-94098061D01*
X112965000Y-94098061D01*
X112965000Y-94301939D01*
X113004774Y-94501898D01*
X113082795Y-94690256D01*
X113196063Y-94859774D01*
X113340226Y-95003937D01*
X113509744Y-95117205D01*
X113573271Y-95143519D01*
X113604774Y-95301898D01*
X113682795Y-95490256D01*
X113796063Y-95659774D01*
X113940226Y-95803937D01*
X114109744Y-95917205D01*
X114298102Y-95995226D01*
X114498061Y-96035000D01*
X114701939Y-96035000D01*
X114901898Y-95995226D01*
X115090256Y-95917205D01*
X115259774Y-95803937D01*
X115328711Y-95735000D01*
X116463895Y-95735000D01*
X116500000Y-95738556D01*
X116536105Y-95735000D01*
X116644085Y-95724365D01*
X116782633Y-95682337D01*
X116910320Y-95614087D01*
X117022238Y-95522238D01*
X117045259Y-95494187D01*
X120004447Y-92535000D01*
X120101939Y-92535000D01*
X120301898Y-92495226D01*
X120490256Y-92417205D01*
X120659774Y-92303937D01*
X120803937Y-92159774D01*
X120917205Y-91990256D01*
X120995226Y-91801898D01*
X121035000Y-91601939D01*
X121035000Y-91398061D01*
X120995226Y-91198102D01*
X120917205Y-91009744D01*
X120803937Y-90840226D01*
X120659774Y-90696063D01*
X120490256Y-90582795D01*
X120301898Y-90504774D01*
X120101939Y-90465000D01*
X119898061Y-90465000D01*
X119698102Y-90504774D01*
X119509744Y-90582795D01*
X119340226Y-90696063D01*
X119196063Y-90840226D01*
X119082795Y-91009744D01*
X119004774Y-91198102D01*
X118965000Y-91398061D01*
X118965000Y-91495553D01*
X118022970Y-92437583D01*
X117995226Y-92298102D01*
X117917205Y-92109744D01*
X117803937Y-91940226D01*
X117659774Y-91796063D01*
X117644785Y-91786047D01*
X117653812Y-91740663D01*
X117653812Y-91536785D01*
X117614038Y-91336826D01*
X117536017Y-91148468D01*
X117422749Y-90978950D01*
X117278586Y-90834787D01*
X117109068Y-90721519D01*
X116920710Y-90643498D01*
X116720751Y-90603724D01*
X116516873Y-90603724D01*
X116316914Y-90643498D01*
X116128556Y-90721519D01*
X115959038Y-90834787D01*
X115814875Y-90978950D01*
X115701607Y-91148468D01*
X115623586Y-91336826D01*
X115583812Y-91536785D01*
X115583812Y-91634277D01*
X114053090Y-93165000D01*
X113898061Y-93165000D01*
X113698102Y-93204774D01*
X113509744Y-93282795D01*
X113340226Y-93396063D01*
X113196063Y-93540226D01*
X113082795Y-93709744D01*
X113004774Y-93898102D01*
X112965000Y-94098061D01*
X107716210Y-94098061D01*
X107734935Y-94059329D01*
X107813379Y-93757127D01*
X107831359Y-93445427D01*
X107788184Y-93136209D01*
X107685513Y-92841356D01*
X107599042Y-92679579D01*
X107339752Y-92589853D01*
X106419605Y-93510000D01*
X106060395Y-93510000D01*
X106046253Y-93495858D01*
X106225858Y-93316253D01*
X106240000Y-93330395D01*
X107160147Y-92410248D01*
X107118324Y-92289387D01*
X107250379Y-92201150D01*
X107471150Y-91980379D01*
X107644609Y-91720779D01*
X107764089Y-91432327D01*
X107825000Y-91126109D01*
X107825000Y-90999801D01*
X108289802Y-90535000D01*
X108351939Y-90535000D01*
X108551898Y-90495226D01*
X108740256Y-90417205D01*
X108909774Y-90303937D01*
X109053937Y-90159774D01*
X109167205Y-89990256D01*
X109245226Y-89801898D01*
X109285000Y-89601939D01*
X109285000Y-89398061D01*
X109245226Y-89198102D01*
X109167205Y-89009744D01*
X109053937Y-88840226D01*
X108909774Y-88696063D01*
X108740256Y-88582795D01*
X108551898Y-88504774D01*
X108518150Y-88498061D01*
X123565000Y-88498061D01*
X123565000Y-88701939D01*
X123604774Y-88901898D01*
X123682795Y-89090256D01*
X123796063Y-89259774D01*
X123940226Y-89403937D01*
X124109744Y-89517205D01*
X124165000Y-89540093D01*
X124165000Y-89701939D01*
X124204774Y-89901898D01*
X124282795Y-90090256D01*
X124396063Y-90259774D01*
X124540226Y-90403937D01*
X124709744Y-90517205D01*
X124898102Y-90595226D01*
X125098061Y-90635000D01*
X125160198Y-90635000D01*
X125274724Y-90749526D01*
X125298523Y-90778525D01*
X125414248Y-90873498D01*
X125546277Y-90944070D01*
X125689538Y-90987527D01*
X125801191Y-90998524D01*
X125801200Y-90998524D01*
X125838523Y-91002200D01*
X125875846Y-90998524D01*
X128323723Y-90998524D01*
X133765000Y-96439802D01*
X133765000Y-96501939D01*
X133804774Y-96701898D01*
X133882795Y-96890256D01*
X133996063Y-97059774D01*
X134140226Y-97203937D01*
X134309744Y-97317205D01*
X134498102Y-97395226D01*
X134698061Y-97435000D01*
X134901939Y-97435000D01*
X135101898Y-97395226D01*
X135290256Y-97317205D01*
X135459774Y-97203937D01*
X135603937Y-97059774D01*
X135717205Y-96890256D01*
X135795226Y-96701898D01*
X135835000Y-96501939D01*
X135835000Y-96298061D01*
X135795226Y-96098102D01*
X135717205Y-95909744D01*
X135672834Y-95843338D01*
X135798102Y-95895226D01*
X135998061Y-95935000D01*
X136201939Y-95935000D01*
X136401898Y-95895226D01*
X136590256Y-95817205D01*
X136759774Y-95703937D01*
X136903937Y-95559774D01*
X137017205Y-95390256D01*
X137095226Y-95201898D01*
X137135000Y-95001939D01*
X137135000Y-94924226D01*
X137205545Y-94792248D01*
X137249002Y-94648987D01*
X137259999Y-94537334D01*
X137259999Y-94537324D01*
X137263675Y-94500002D01*
X137259999Y-94462679D01*
X137259999Y-92100000D01*
X138261928Y-92100000D01*
X138274188Y-92224482D01*
X138310498Y-92344180D01*
X138369463Y-92454494D01*
X138448815Y-92551185D01*
X138545506Y-92630537D01*
X138655820Y-92689502D01*
X138728380Y-92711513D01*
X138596525Y-92843368D01*
X138434010Y-93086589D01*
X138322068Y-93356842D01*
X138265000Y-93643740D01*
X138265000Y-93936260D01*
X138322068Y-94223158D01*
X138434010Y-94493411D01*
X138596525Y-94736632D01*
X138803368Y-94943475D01*
X138977760Y-95060000D01*
X138803368Y-95176525D01*
X138596525Y-95383368D01*
X138434010Y-95626589D01*
X138322068Y-95896842D01*
X138265000Y-96183740D01*
X138265000Y-96476260D01*
X138322068Y-96763158D01*
X138434010Y-97033411D01*
X138596525Y-97276632D01*
X138803368Y-97483475D01*
X138977760Y-97600000D01*
X138803368Y-97716525D01*
X138596525Y-97923368D01*
X138434010Y-98166589D01*
X138322068Y-98436842D01*
X138265000Y-98723740D01*
X138265000Y-99016260D01*
X138322068Y-99303158D01*
X138434010Y-99573411D01*
X138596525Y-99816632D01*
X138803368Y-100023475D01*
X139046589Y-100185990D01*
X139316842Y-100297932D01*
X139603740Y-100355000D01*
X139896260Y-100355000D01*
X140183158Y-100297932D01*
X140453411Y-100185990D01*
X140696632Y-100023475D01*
X140903475Y-99816632D01*
X141020000Y-99642240D01*
X141136525Y-99816632D01*
X141343368Y-100023475D01*
X141586589Y-100185990D01*
X141856842Y-100297932D01*
X142143740Y-100355000D01*
X142436260Y-100355000D01*
X142723158Y-100297932D01*
X142993411Y-100185990D01*
X143236632Y-100023475D01*
X143443475Y-99816632D01*
X143605990Y-99573411D01*
X143717932Y-99303158D01*
X143775000Y-99016260D01*
X143775000Y-98723740D01*
X143717932Y-98436842D01*
X143605990Y-98166589D01*
X143443475Y-97923368D01*
X143236632Y-97716525D01*
X143062240Y-97600000D01*
X143236632Y-97483475D01*
X143443475Y-97276632D01*
X143605990Y-97033411D01*
X143717932Y-96763158D01*
X143775000Y-96476260D01*
X143775000Y-96183740D01*
X143717932Y-95896842D01*
X143605990Y-95626589D01*
X143443475Y-95383368D01*
X143236632Y-95176525D01*
X143062240Y-95060000D01*
X143236632Y-94943475D01*
X143443475Y-94736632D01*
X143605990Y-94493411D01*
X143717932Y-94223158D01*
X143775000Y-93936260D01*
X143775000Y-93643740D01*
X143717932Y-93356842D01*
X143605990Y-93086589D01*
X143443475Y-92843368D01*
X143236632Y-92636525D01*
X143062240Y-92520000D01*
X143236632Y-92403475D01*
X143443475Y-92196632D01*
X143605990Y-91953411D01*
X143717932Y-91683158D01*
X143775000Y-91396260D01*
X143775000Y-91103740D01*
X143717932Y-90816842D01*
X143605990Y-90546589D01*
X143443475Y-90303368D01*
X143236632Y-90096525D01*
X142993411Y-89934010D01*
X142723158Y-89822068D01*
X142436260Y-89765000D01*
X142143740Y-89765000D01*
X141856842Y-89822068D01*
X141586589Y-89934010D01*
X141343368Y-90096525D01*
X141211513Y-90228380D01*
X141189502Y-90155820D01*
X141130537Y-90045506D01*
X141051185Y-89948815D01*
X140954494Y-89869463D01*
X140844180Y-89810498D01*
X140724482Y-89774188D01*
X140600000Y-89761928D01*
X140035750Y-89765000D01*
X139877000Y-89923750D01*
X139877000Y-91123000D01*
X139897000Y-91123000D01*
X139897000Y-91377000D01*
X139877000Y-91377000D01*
X139877000Y-91397000D01*
X139623000Y-91397000D01*
X139623000Y-91377000D01*
X138423750Y-91377000D01*
X138265000Y-91535750D01*
X138261928Y-92100000D01*
X137259999Y-92100000D01*
X137259999Y-91537322D01*
X137263675Y-91499999D01*
X137259999Y-91462676D01*
X137259999Y-91462666D01*
X137249002Y-91351013D01*
X137205545Y-91207752D01*
X137173857Y-91148468D01*
X137134973Y-91075722D01*
X137063798Y-90988996D01*
X137040000Y-90959998D01*
X137011002Y-90936200D01*
X136474802Y-90400000D01*
X138261928Y-90400000D01*
X138265000Y-90964250D01*
X138423750Y-91123000D01*
X139623000Y-91123000D01*
X139623000Y-89923750D01*
X139464250Y-89765000D01*
X138900000Y-89761928D01*
X138775518Y-89774188D01*
X138655820Y-89810498D01*
X138545506Y-89869463D01*
X138448815Y-89948815D01*
X138369463Y-90045506D01*
X138310498Y-90155820D01*
X138274188Y-90275518D01*
X138261928Y-90400000D01*
X136474802Y-90400000D01*
X134163804Y-88089003D01*
X134140001Y-88059999D01*
X134024276Y-87965026D01*
X133892247Y-87894454D01*
X133748986Y-87850997D01*
X133637333Y-87840000D01*
X133637322Y-87840000D01*
X133600000Y-87836324D01*
X133562678Y-87840000D01*
X125303711Y-87840000D01*
X125259774Y-87796063D01*
X125090256Y-87682795D01*
X124901898Y-87604774D01*
X124701939Y-87565000D01*
X124498061Y-87565000D01*
X124298102Y-87604774D01*
X124109744Y-87682795D01*
X123940226Y-87796063D01*
X123796063Y-87940226D01*
X123682795Y-88109744D01*
X123604774Y-88298102D01*
X123565000Y-88498061D01*
X108518150Y-88498061D01*
X108351939Y-88465000D01*
X108148061Y-88465000D01*
X107948102Y-88504774D01*
X107759744Y-88582795D01*
X107590226Y-88696063D01*
X107446063Y-88840226D01*
X107332795Y-89009744D01*
X107254774Y-89198102D01*
X107215000Y-89398061D01*
X107215000Y-89460198D01*
X107062131Y-89613067D01*
X106990779Y-89565391D01*
X106702327Y-89445911D01*
X106396109Y-89385000D01*
X106083891Y-89385000D01*
X105777673Y-89445911D01*
X105489221Y-89565391D01*
X105288072Y-89699794D01*
X105288072Y-88750000D01*
X105275812Y-88625518D01*
X105239502Y-88505820D01*
X105180537Y-88395506D01*
X105101185Y-88298815D01*
X105004494Y-88219463D01*
X104894180Y-88160498D01*
X104774482Y-88124188D01*
X104650000Y-88111928D01*
X102750000Y-88111928D01*
X102625518Y-88124188D01*
X102505820Y-88160498D01*
X102395506Y-88219463D01*
X102298815Y-88298815D01*
X102219463Y-88395506D01*
X102160498Y-88505820D01*
X102124188Y-88625518D01*
X102111928Y-88750000D01*
X99600624Y-88750000D01*
X99620000Y-88652591D01*
X99620000Y-88207409D01*
X99604781Y-88130896D01*
X99845581Y-88230639D01*
X100219419Y-88305000D01*
X100600581Y-88305000D01*
X100974419Y-88230639D01*
X101326566Y-88084775D01*
X101643491Y-87873013D01*
X101913013Y-87603491D01*
X102124775Y-87286566D01*
X102270639Y-86934419D01*
X102345000Y-86560581D01*
X102345000Y-86179419D01*
X102270639Y-85805581D01*
X102124775Y-85453434D01*
X101913013Y-85136509D01*
X101643491Y-84866987D01*
X101326566Y-84655225D01*
X100974419Y-84509361D01*
X100600581Y-84435000D01*
X100219419Y-84435000D01*
X99845581Y-84509361D01*
X99493434Y-84655225D01*
X99176509Y-84866987D01*
X98906987Y-85136509D01*
X98695225Y-85453434D01*
X98549361Y-85805581D01*
X98475000Y-86179419D01*
X98475000Y-86456941D01*
X98430511Y-86427214D01*
X98019218Y-86256851D01*
X97582591Y-86170000D01*
X97137409Y-86170000D01*
X96700782Y-86256851D01*
X96289489Y-86427214D01*
X95919334Y-86674544D01*
X95604544Y-86989334D01*
X95357214Y-87359489D01*
X95186851Y-87770782D01*
X95100000Y-88207409D01*
X93993893Y-88207409D01*
X94040000Y-87975616D01*
X94040000Y-87664384D01*
X93979282Y-87359131D01*
X93860178Y-87071589D01*
X93687266Y-86812809D01*
X93467191Y-86592734D01*
X93208411Y-86419822D01*
X92920869Y-86300718D01*
X92615616Y-86240000D01*
X92304384Y-86240000D01*
X91999131Y-86300718D01*
X91711589Y-86419822D01*
X91452809Y-86592734D01*
X91232734Y-86812809D01*
X91059822Y-87071589D01*
X90940718Y-87359131D01*
X90880000Y-87664384D01*
X83660000Y-87664384D01*
X83660000Y-81704155D01*
X84021161Y-82244670D01*
X84555330Y-82778839D01*
X85183446Y-83198533D01*
X85881372Y-83487623D01*
X86622285Y-83635000D01*
X87377715Y-83635000D01*
X88118628Y-83487623D01*
X88816554Y-83198533D01*
X89444670Y-82778839D01*
X89978839Y-82244670D01*
X90398533Y-81616554D01*
X90687623Y-80918628D01*
X90835000Y-80177715D01*
X90835000Y-79422285D01*
X90687623Y-78681372D01*
X90398533Y-77983446D01*
X89978839Y-77355330D01*
X89444670Y-76821161D01*
X89203476Y-76660000D01*
X91880320Y-76660000D01*
X107727387Y-82602651D01*
%TD*%
M02*
