M48
; DRILL file {KiCad (5.1.6)-1} date 09/26/20 17:15:10
; FORMAT={-:-/ absolute / inch / decimal}
; #@! TF.CreationDate,2020-09-26T17:15:10+05:30
; #@! TF.GenerationSoftware,Kicad,Pcbnew,(5.1.6)-1
; #@! TF.FileFunction,Plated,1,2,PTH
FMAT,2
INCH
T1C0.0157
T2C0.0197
T3C0.0350
T4C0.0354
T5C0.0394
T6C0.0630
T7C0.1260
%
G90
G05
T1
X3.6516Y-4.0551
X4.2618Y-3.5236
X4.4193Y-3.4252
X4.4783Y-3.435
X4.4882Y-3.7087
X4.5118Y-3.7402
X4.5374Y-3.4449
X4.5913Y-3.6078
X4.5965Y-3.4449
X4.6063Y-3.6457
X4.6654Y-3.435
X4.6949Y-3.3661
X4.7244Y-3.6024
X4.7717Y-3.7146
X4.7874Y-3.874
X4.7933Y-3.9665
X4.9055Y-3.4882
X4.9291Y-3.5276
X4.9824Y-3.5242
X5.1083Y-3.8287
X5.1673Y-3.7697
X5.3071Y-3.7953
X5.342Y-3.6659
X5.3583Y-3.7362
T2
X3.3307Y-3.1417
X3.3584Y-3.0749
X3.3584Y-3.2085
X3.4252Y-3.0472
X3.4252Y-3.2362
X3.492Y-3.0749
X3.492Y-3.2085
X3.5197Y-3.1417
X5.6043Y-3.1496
X5.632Y-3.0828
X5.632Y-3.2164
X5.6988Y-3.0551
X5.6988Y-3.2441
X5.7656Y-3.0828
X5.7656Y-3.2164
X5.7933Y-3.1496
X5.6043Y-4.3012
X5.632Y-4.2344
X5.632Y-4.368
X5.6988Y-4.2067
X5.6988Y-4.3957
X5.7656Y-4.2344
X5.7656Y-4.368
X5.7933Y-4.3012
X3.3307Y-4.2913
X3.3584Y-4.2245
X3.3584Y-4.3582
X3.4252Y-4.1969
X3.4252Y-4.3858
X3.492Y-4.2245
X3.492Y-4.3582
X3.5197Y-4.2913
T3
X3.6402Y-3.4575
X3.6402Y-3.8555
X3.7Y-3.5575
X3.7Y-3.9555
T4
X4.0827Y-3.5315
X4.0827Y-3.6315
X4.0827Y-3.7315
X4.0827Y-3.8315
X4.1827Y-3.5815
X4.1827Y-3.6815
X4.1827Y-3.7815
X4.1827Y-3.8815
T5
X5.502Y-3.5925
X5.502Y-3.6925
X5.502Y-3.7925
X5.502Y-3.8925
X5.602Y-3.5925
X5.602Y-3.6925
X5.602Y-3.7925
X5.602Y-3.8925
T6
X3.9531Y-3.4004
X3.9531Y-4.0126
T7
X3.4252Y-3.1417
X5.6988Y-3.1496
X5.6988Y-4.3012
X3.4252Y-4.2913
T0
M30
