%TF.GenerationSoftware,KiCad,Pcbnew,(5.1.6)-1*%
%TF.CreationDate,2020-09-26T17:15:15+05:30*%
%TF.ProjectId,ENC28J60_Dev_Board,454e4332-384a-4363-905f-4465765f426f,rev?*%
%TF.SameCoordinates,Original*%
%TF.FileFunction,Paste,Top*%
%TF.FilePolarity,Positive*%
%FSLAX46Y46*%
G04 Gerber Fmt 4.6, Leading zero omitted, Abs format (unit mm)*
G04 Created by KiCad (PCBNEW (5.1.6)-1) date 2020-09-26 17:15:15*
%MOMM*%
%LPD*%
G01*
G04 APERTURE LIST*
%ADD10R,1.200000X1.400000*%
G04 APERTURE END LIST*
%TO.C,C1*%
G36*
G01*
X122525000Y-99256250D02*
X122525000Y-98743750D01*
G75*
G02*
X122743750Y-98525000I218750J0D01*
G01*
X123181250Y-98525000D01*
G75*
G02*
X123400000Y-98743750I0J-218750D01*
G01*
X123400000Y-99256250D01*
G75*
G02*
X123181250Y-99475000I-218750J0D01*
G01*
X122743750Y-99475000D01*
G75*
G02*
X122525000Y-99256250I0J218750D01*
G01*
G37*
G36*
G01*
X124100000Y-99256250D02*
X124100000Y-98743750D01*
G75*
G02*
X124318750Y-98525000I218750J0D01*
G01*
X124756250Y-98525000D01*
G75*
G02*
X124975000Y-98743750I0J-218750D01*
G01*
X124975000Y-99256250D01*
G75*
G02*
X124756250Y-99475000I-218750J0D01*
G01*
X124318750Y-99475000D01*
G75*
G02*
X124100000Y-99256250I0J218750D01*
G01*
G37*
%TD*%
%TO.C,C2*%
G36*
G01*
X110812500Y-97756250D02*
X110812500Y-97243750D01*
G75*
G02*
X111031250Y-97025000I218750J0D01*
G01*
X111468750Y-97025000D01*
G75*
G02*
X111687500Y-97243750I0J-218750D01*
G01*
X111687500Y-97756250D01*
G75*
G02*
X111468750Y-97975000I-218750J0D01*
G01*
X111031250Y-97975000D01*
G75*
G02*
X110812500Y-97756250I0J218750D01*
G01*
G37*
G36*
G01*
X109237500Y-97756250D02*
X109237500Y-97243750D01*
G75*
G02*
X109456250Y-97025000I218750J0D01*
G01*
X109893750Y-97025000D01*
G75*
G02*
X110112500Y-97243750I0J-218750D01*
G01*
X110112500Y-97756250D01*
G75*
G02*
X109893750Y-97975000I-218750J0D01*
G01*
X109456250Y-97975000D01*
G75*
G02*
X109237500Y-97756250I0J218750D01*
G01*
G37*
%TD*%
%TO.C,C3*%
G36*
G01*
X130775000Y-94506250D02*
X130775000Y-93993750D01*
G75*
G02*
X130993750Y-93775000I218750J0D01*
G01*
X131431250Y-93775000D01*
G75*
G02*
X131650000Y-93993750I0J-218750D01*
G01*
X131650000Y-94506250D01*
G75*
G02*
X131431250Y-94725000I-218750J0D01*
G01*
X130993750Y-94725000D01*
G75*
G02*
X130775000Y-94506250I0J218750D01*
G01*
G37*
G36*
G01*
X132350000Y-94506250D02*
X132350000Y-93993750D01*
G75*
G02*
X132568750Y-93775000I218750J0D01*
G01*
X133006250Y-93775000D01*
G75*
G02*
X133225000Y-93993750I0J-218750D01*
G01*
X133225000Y-94506250D01*
G75*
G02*
X133006250Y-94725000I-218750J0D01*
G01*
X132568750Y-94725000D01*
G75*
G02*
X132350000Y-94506250I0J218750D01*
G01*
G37*
%TD*%
%TO.C,C4*%
G36*
G01*
X120493750Y-86850000D02*
X121006250Y-86850000D01*
G75*
G02*
X121225000Y-87068750I0J-218750D01*
G01*
X121225000Y-87506250D01*
G75*
G02*
X121006250Y-87725000I-218750J0D01*
G01*
X120493750Y-87725000D01*
G75*
G02*
X120275000Y-87506250I0J218750D01*
G01*
X120275000Y-87068750D01*
G75*
G02*
X120493750Y-86850000I218750J0D01*
G01*
G37*
G36*
G01*
X120493750Y-85275000D02*
X121006250Y-85275000D01*
G75*
G02*
X121225000Y-85493750I0J-218750D01*
G01*
X121225000Y-85931250D01*
G75*
G02*
X121006250Y-86150000I-218750J0D01*
G01*
X120493750Y-86150000D01*
G75*
G02*
X120275000Y-85931250I0J218750D01*
G01*
X120275000Y-85493750D01*
G75*
G02*
X120493750Y-85275000I218750J0D01*
G01*
G37*
%TD*%
%TO.C,C5*%
G36*
G01*
X110756250Y-87725000D02*
X110243750Y-87725000D01*
G75*
G02*
X110025000Y-87506250I0J218750D01*
G01*
X110025000Y-87068750D01*
G75*
G02*
X110243750Y-86850000I218750J0D01*
G01*
X110756250Y-86850000D01*
G75*
G02*
X110975000Y-87068750I0J-218750D01*
G01*
X110975000Y-87506250D01*
G75*
G02*
X110756250Y-87725000I-218750J0D01*
G01*
G37*
G36*
G01*
X110756250Y-86150000D02*
X110243750Y-86150000D01*
G75*
G02*
X110025000Y-85931250I0J218750D01*
G01*
X110025000Y-85493750D01*
G75*
G02*
X110243750Y-85275000I218750J0D01*
G01*
X110756250Y-85275000D01*
G75*
G02*
X110975000Y-85493750I0J-218750D01*
G01*
X110975000Y-85931250D01*
G75*
G02*
X110756250Y-86150000I-218750J0D01*
G01*
G37*
%TD*%
%TO.C,C6*%
G36*
G01*
X138275000Y-88256250D02*
X138275000Y-87743750D01*
G75*
G02*
X138493750Y-87525000I218750J0D01*
G01*
X138931250Y-87525000D01*
G75*
G02*
X139150000Y-87743750I0J-218750D01*
G01*
X139150000Y-88256250D01*
G75*
G02*
X138931250Y-88475000I-218750J0D01*
G01*
X138493750Y-88475000D01*
G75*
G02*
X138275000Y-88256250I0J218750D01*
G01*
G37*
G36*
G01*
X139850000Y-88256250D02*
X139850000Y-87743750D01*
G75*
G02*
X140068750Y-87525000I218750J0D01*
G01*
X140506250Y-87525000D01*
G75*
G02*
X140725000Y-87743750I0J-218750D01*
G01*
X140725000Y-88256250D01*
G75*
G02*
X140506250Y-88475000I-218750J0D01*
G01*
X140068750Y-88475000D01*
G75*
G02*
X139850000Y-88256250I0J218750D01*
G01*
G37*
%TD*%
%TO.C,C7*%
G36*
G01*
X139850000Y-86256250D02*
X139850000Y-85743750D01*
G75*
G02*
X140068750Y-85525000I218750J0D01*
G01*
X140506250Y-85525000D01*
G75*
G02*
X140725000Y-85743750I0J-218750D01*
G01*
X140725000Y-86256250D01*
G75*
G02*
X140506250Y-86475000I-218750J0D01*
G01*
X140068750Y-86475000D01*
G75*
G02*
X139850000Y-86256250I0J218750D01*
G01*
G37*
G36*
G01*
X138275000Y-86256250D02*
X138275000Y-85743750D01*
G75*
G02*
X138493750Y-85525000I218750J0D01*
G01*
X138931250Y-85525000D01*
G75*
G02*
X139150000Y-85743750I0J-218750D01*
G01*
X139150000Y-86256250D01*
G75*
G02*
X138931250Y-86475000I-218750J0D01*
G01*
X138493750Y-86475000D01*
G75*
G02*
X138275000Y-86256250I0J218750D01*
G01*
G37*
%TD*%
%TO.C,C8*%
G36*
G01*
X129506250Y-103990001D02*
X128993750Y-103990001D01*
G75*
G02*
X128775000Y-103771251I0J218750D01*
G01*
X128775000Y-103333751D01*
G75*
G02*
X128993750Y-103115001I218750J0D01*
G01*
X129506250Y-103115001D01*
G75*
G02*
X129725000Y-103333751I0J-218750D01*
G01*
X129725000Y-103771251D01*
G75*
G02*
X129506250Y-103990001I-218750J0D01*
G01*
G37*
G36*
G01*
X129506250Y-102415001D02*
X128993750Y-102415001D01*
G75*
G02*
X128775000Y-102196251I0J218750D01*
G01*
X128775000Y-101758751D01*
G75*
G02*
X128993750Y-101540001I218750J0D01*
G01*
X129506250Y-101540001D01*
G75*
G02*
X129725000Y-101758751I0J-218750D01*
G01*
X129725000Y-102196251D01*
G75*
G02*
X129506250Y-102415001I-218750J0D01*
G01*
G37*
%TD*%
%TO.C,C9*%
G36*
G01*
X123756250Y-102400000D02*
X123243750Y-102400000D01*
G75*
G02*
X123025000Y-102181250I0J218750D01*
G01*
X123025000Y-101743750D01*
G75*
G02*
X123243750Y-101525000I218750J0D01*
G01*
X123756250Y-101525000D01*
G75*
G02*
X123975000Y-101743750I0J-218750D01*
G01*
X123975000Y-102181250D01*
G75*
G02*
X123756250Y-102400000I-218750J0D01*
G01*
G37*
G36*
G01*
X123756250Y-103975000D02*
X123243750Y-103975000D01*
G75*
G02*
X123025000Y-103756250I0J218750D01*
G01*
X123025000Y-103318750D01*
G75*
G02*
X123243750Y-103100000I218750J0D01*
G01*
X123756250Y-103100000D01*
G75*
G02*
X123975000Y-103318750I0J-218750D01*
G01*
X123975000Y-103756250D01*
G75*
G02*
X123756250Y-103975000I-218750J0D01*
G01*
G37*
%TD*%
%TO.C,C10*%
G36*
G01*
X109275000Y-93006250D02*
X109275000Y-92493750D01*
G75*
G02*
X109493750Y-92275000I218750J0D01*
G01*
X109931250Y-92275000D01*
G75*
G02*
X110150000Y-92493750I0J-218750D01*
G01*
X110150000Y-93006250D01*
G75*
G02*
X109931250Y-93225000I-218750J0D01*
G01*
X109493750Y-93225000D01*
G75*
G02*
X109275000Y-93006250I0J218750D01*
G01*
G37*
G36*
G01*
X110850000Y-93006250D02*
X110850000Y-92493750D01*
G75*
G02*
X111068750Y-92275000I218750J0D01*
G01*
X111506250Y-92275000D01*
G75*
G02*
X111725000Y-92493750I0J-218750D01*
G01*
X111725000Y-93006250D01*
G75*
G02*
X111506250Y-93225000I-218750J0D01*
G01*
X111068750Y-93225000D01*
G75*
G02*
X110850000Y-93006250I0J218750D01*
G01*
G37*
%TD*%
%TO.C,C11*%
G36*
G01*
X129562500Y-99256250D02*
X129562500Y-98743750D01*
G75*
G02*
X129781250Y-98525000I218750J0D01*
G01*
X130218750Y-98525000D01*
G75*
G02*
X130437500Y-98743750I0J-218750D01*
G01*
X130437500Y-99256250D01*
G75*
G02*
X130218750Y-99475000I-218750J0D01*
G01*
X129781250Y-99475000D01*
G75*
G02*
X129562500Y-99256250I0J218750D01*
G01*
G37*
G36*
G01*
X127987500Y-99256250D02*
X127987500Y-98743750D01*
G75*
G02*
X128206250Y-98525000I218750J0D01*
G01*
X128643750Y-98525000D01*
G75*
G02*
X128862500Y-98743750I0J-218750D01*
G01*
X128862500Y-99256250D01*
G75*
G02*
X128643750Y-99475000I-218750J0D01*
G01*
X128206250Y-99475000D01*
G75*
G02*
X127987500Y-99256250I0J218750D01*
G01*
G37*
%TD*%
%TO.C,R1*%
G36*
G01*
X93275000Y-83506250D02*
X93275000Y-82993750D01*
G75*
G02*
X93493750Y-82775000I218750J0D01*
G01*
X93931250Y-82775000D01*
G75*
G02*
X94150000Y-82993750I0J-218750D01*
G01*
X94150000Y-83506250D01*
G75*
G02*
X93931250Y-83725000I-218750J0D01*
G01*
X93493750Y-83725000D01*
G75*
G02*
X93275000Y-83506250I0J218750D01*
G01*
G37*
G36*
G01*
X94850000Y-83506250D02*
X94850000Y-82993750D01*
G75*
G02*
X95068750Y-82775000I218750J0D01*
G01*
X95506250Y-82775000D01*
G75*
G02*
X95725000Y-82993750I0J-218750D01*
G01*
X95725000Y-83506250D01*
G75*
G02*
X95506250Y-83725000I-218750J0D01*
G01*
X95068750Y-83725000D01*
G75*
G02*
X94850000Y-83506250I0J218750D01*
G01*
G37*
%TD*%
%TO.C,R2*%
G36*
G01*
X90525000Y-105256250D02*
X90525000Y-104743750D01*
G75*
G02*
X90743750Y-104525000I218750J0D01*
G01*
X91181250Y-104525000D01*
G75*
G02*
X91400000Y-104743750I0J-218750D01*
G01*
X91400000Y-105256250D01*
G75*
G02*
X91181250Y-105475000I-218750J0D01*
G01*
X90743750Y-105475000D01*
G75*
G02*
X90525000Y-105256250I0J218750D01*
G01*
G37*
G36*
G01*
X92100000Y-105256250D02*
X92100000Y-104743750D01*
G75*
G02*
X92318750Y-104525000I218750J0D01*
G01*
X92756250Y-104525000D01*
G75*
G02*
X92975000Y-104743750I0J-218750D01*
G01*
X92975000Y-105256250D01*
G75*
G02*
X92756250Y-105475000I-218750J0D01*
G01*
X92318750Y-105475000D01*
G75*
G02*
X92100000Y-105256250I0J218750D01*
G01*
G37*
%TD*%
%TO.C,R3*%
G36*
G01*
X119350000Y-94256250D02*
X119350000Y-93743750D01*
G75*
G02*
X119568750Y-93525000I218750J0D01*
G01*
X120006250Y-93525000D01*
G75*
G02*
X120225000Y-93743750I0J-218750D01*
G01*
X120225000Y-94256250D01*
G75*
G02*
X120006250Y-94475000I-218750J0D01*
G01*
X119568750Y-94475000D01*
G75*
G02*
X119350000Y-94256250I0J218750D01*
G01*
G37*
G36*
G01*
X117775000Y-94256250D02*
X117775000Y-93743750D01*
G75*
G02*
X117993750Y-93525000I218750J0D01*
G01*
X118431250Y-93525000D01*
G75*
G02*
X118650000Y-93743750I0J-218750D01*
G01*
X118650000Y-94256250D01*
G75*
G02*
X118431250Y-94475000I-218750J0D01*
G01*
X117993750Y-94475000D01*
G75*
G02*
X117775000Y-94256250I0J218750D01*
G01*
G37*
%TD*%
%TO.C,R4*%
G36*
G01*
X117256250Y-89150000D02*
X116743750Y-89150000D01*
G75*
G02*
X116525000Y-88931250I0J218750D01*
G01*
X116525000Y-88493750D01*
G75*
G02*
X116743750Y-88275000I218750J0D01*
G01*
X117256250Y-88275000D01*
G75*
G02*
X117475000Y-88493750I0J-218750D01*
G01*
X117475000Y-88931250D01*
G75*
G02*
X117256250Y-89150000I-218750J0D01*
G01*
G37*
G36*
G01*
X117256250Y-90725000D02*
X116743750Y-90725000D01*
G75*
G02*
X116525000Y-90506250I0J218750D01*
G01*
X116525000Y-90068750D01*
G75*
G02*
X116743750Y-89850000I218750J0D01*
G01*
X117256250Y-89850000D01*
G75*
G02*
X117475000Y-90068750I0J-218750D01*
G01*
X117475000Y-90506250D01*
G75*
G02*
X117256250Y-90725000I-218750J0D01*
G01*
G37*
%TD*%
%TO.C,R5*%
G36*
G01*
X119256250Y-89150000D02*
X118743750Y-89150000D01*
G75*
G02*
X118525000Y-88931250I0J218750D01*
G01*
X118525000Y-88493750D01*
G75*
G02*
X118743750Y-88275000I218750J0D01*
G01*
X119256250Y-88275000D01*
G75*
G02*
X119475000Y-88493750I0J-218750D01*
G01*
X119475000Y-88931250D01*
G75*
G02*
X119256250Y-89150000I-218750J0D01*
G01*
G37*
G36*
G01*
X119256250Y-90725000D02*
X118743750Y-90725000D01*
G75*
G02*
X118525000Y-90506250I0J218750D01*
G01*
X118525000Y-90068750D01*
G75*
G02*
X118743750Y-89850000I218750J0D01*
G01*
X119256250Y-89850000D01*
G75*
G02*
X119475000Y-90068750I0J-218750D01*
G01*
X119475000Y-90506250D01*
G75*
G02*
X119256250Y-90725000I-218750J0D01*
G01*
G37*
%TD*%
%TO.C,R6*%
G36*
G01*
X113006250Y-90725000D02*
X112493750Y-90725000D01*
G75*
G02*
X112275000Y-90506250I0J218750D01*
G01*
X112275000Y-90068750D01*
G75*
G02*
X112493750Y-89850000I218750J0D01*
G01*
X113006250Y-89850000D01*
G75*
G02*
X113225000Y-90068750I0J-218750D01*
G01*
X113225000Y-90506250D01*
G75*
G02*
X113006250Y-90725000I-218750J0D01*
G01*
G37*
G36*
G01*
X113006250Y-89150000D02*
X112493750Y-89150000D01*
G75*
G02*
X112275000Y-88931250I0J218750D01*
G01*
X112275000Y-88493750D01*
G75*
G02*
X112493750Y-88275000I218750J0D01*
G01*
X113006250Y-88275000D01*
G75*
G02*
X113225000Y-88493750I0J-218750D01*
G01*
X113225000Y-88931250D01*
G75*
G02*
X113006250Y-89150000I-218750J0D01*
G01*
G37*
%TD*%
%TO.C,R7*%
G36*
G01*
X115006250Y-89150000D02*
X114493750Y-89150000D01*
G75*
G02*
X114275000Y-88931250I0J218750D01*
G01*
X114275000Y-88493750D01*
G75*
G02*
X114493750Y-88275000I218750J0D01*
G01*
X115006250Y-88275000D01*
G75*
G02*
X115225000Y-88493750I0J-218750D01*
G01*
X115225000Y-88931250D01*
G75*
G02*
X115006250Y-89150000I-218750J0D01*
G01*
G37*
G36*
G01*
X115006250Y-90725000D02*
X114493750Y-90725000D01*
G75*
G02*
X114275000Y-90506250I0J218750D01*
G01*
X114275000Y-90068750D01*
G75*
G02*
X114493750Y-89850000I218750J0D01*
G01*
X115006250Y-89850000D01*
G75*
G02*
X115225000Y-90068750I0J-218750D01*
G01*
X115225000Y-90506250D01*
G75*
G02*
X115006250Y-90725000I-218750J0D01*
G01*
G37*
%TD*%
%TO.C,R8*%
G36*
G01*
X118775000Y-97006250D02*
X118775000Y-96493750D01*
G75*
G02*
X118993750Y-96275000I218750J0D01*
G01*
X119431250Y-96275000D01*
G75*
G02*
X119650000Y-96493750I0J-218750D01*
G01*
X119650000Y-97006250D01*
G75*
G02*
X119431250Y-97225000I-218750J0D01*
G01*
X118993750Y-97225000D01*
G75*
G02*
X118775000Y-97006250I0J218750D01*
G01*
G37*
G36*
G01*
X120350000Y-97006250D02*
X120350000Y-96493750D01*
G75*
G02*
X120568750Y-96275000I218750J0D01*
G01*
X121006250Y-96275000D01*
G75*
G02*
X121225000Y-96493750I0J-218750D01*
G01*
X121225000Y-97006250D01*
G75*
G02*
X121006250Y-97225000I-218750J0D01*
G01*
X120568750Y-97225000D01*
G75*
G02*
X120350000Y-97006250I0J218750D01*
G01*
G37*
%TD*%
%TO.C,U1*%
G36*
G01*
X127325000Y-90950000D02*
X127475000Y-90950000D01*
G75*
G02*
X127550000Y-91025000I0J-75000D01*
G01*
X127550000Y-91900000D01*
G75*
G02*
X127475000Y-91975000I-75000J0D01*
G01*
X127325000Y-91975000D01*
G75*
G02*
X127250000Y-91900000I0J75000D01*
G01*
X127250000Y-91025000D01*
G75*
G02*
X127325000Y-90950000I75000J0D01*
G01*
G37*
G36*
G01*
X126675000Y-90950000D02*
X126825000Y-90950000D01*
G75*
G02*
X126900000Y-91025000I0J-75000D01*
G01*
X126900000Y-91900000D01*
G75*
G02*
X126825000Y-91975000I-75000J0D01*
G01*
X126675000Y-91975000D01*
G75*
G02*
X126600000Y-91900000I0J75000D01*
G01*
X126600000Y-91025000D01*
G75*
G02*
X126675000Y-90950000I75000J0D01*
G01*
G37*
G36*
G01*
X126025000Y-90950000D02*
X126175000Y-90950000D01*
G75*
G02*
X126250000Y-91025000I0J-75000D01*
G01*
X126250000Y-91900000D01*
G75*
G02*
X126175000Y-91975000I-75000J0D01*
G01*
X126025000Y-91975000D01*
G75*
G02*
X125950000Y-91900000I0J75000D01*
G01*
X125950000Y-91025000D01*
G75*
G02*
X126025000Y-90950000I75000J0D01*
G01*
G37*
G36*
G01*
X125375000Y-90950000D02*
X125525000Y-90950000D01*
G75*
G02*
X125600000Y-91025000I0J-75000D01*
G01*
X125600000Y-91900000D01*
G75*
G02*
X125525000Y-91975000I-75000J0D01*
G01*
X125375000Y-91975000D01*
G75*
G02*
X125300000Y-91900000I0J75000D01*
G01*
X125300000Y-91025000D01*
G75*
G02*
X125375000Y-90950000I75000J0D01*
G01*
G37*
G36*
G01*
X124725000Y-90950000D02*
X124875000Y-90950000D01*
G75*
G02*
X124950000Y-91025000I0J-75000D01*
G01*
X124950000Y-91900000D01*
G75*
G02*
X124875000Y-91975000I-75000J0D01*
G01*
X124725000Y-91975000D01*
G75*
G02*
X124650000Y-91900000I0J75000D01*
G01*
X124650000Y-91025000D01*
G75*
G02*
X124725000Y-90950000I75000J0D01*
G01*
G37*
G36*
G01*
X124075000Y-90950000D02*
X124225000Y-90950000D01*
G75*
G02*
X124300000Y-91025000I0J-75000D01*
G01*
X124300000Y-91900000D01*
G75*
G02*
X124225000Y-91975000I-75000J0D01*
G01*
X124075000Y-91975000D01*
G75*
G02*
X124000000Y-91900000I0J75000D01*
G01*
X124000000Y-91025000D01*
G75*
G02*
X124075000Y-90950000I75000J0D01*
G01*
G37*
G36*
G01*
X123425000Y-90950000D02*
X123575000Y-90950000D01*
G75*
G02*
X123650000Y-91025000I0J-75000D01*
G01*
X123650000Y-91900000D01*
G75*
G02*
X123575000Y-91975000I-75000J0D01*
G01*
X123425000Y-91975000D01*
G75*
G02*
X123350000Y-91900000I0J75000D01*
G01*
X123350000Y-91025000D01*
G75*
G02*
X123425000Y-90950000I75000J0D01*
G01*
G37*
G36*
G01*
X122175000Y-92200000D02*
X123050000Y-92200000D01*
G75*
G02*
X123125000Y-92275000I0J-75000D01*
G01*
X123125000Y-92425000D01*
G75*
G02*
X123050000Y-92500000I-75000J0D01*
G01*
X122175000Y-92500000D01*
G75*
G02*
X122100000Y-92425000I0J75000D01*
G01*
X122100000Y-92275000D01*
G75*
G02*
X122175000Y-92200000I75000J0D01*
G01*
G37*
G36*
G01*
X122175000Y-92850000D02*
X123050000Y-92850000D01*
G75*
G02*
X123125000Y-92925000I0J-75000D01*
G01*
X123125000Y-93075000D01*
G75*
G02*
X123050000Y-93150000I-75000J0D01*
G01*
X122175000Y-93150000D01*
G75*
G02*
X122100000Y-93075000I0J75000D01*
G01*
X122100000Y-92925000D01*
G75*
G02*
X122175000Y-92850000I75000J0D01*
G01*
G37*
G36*
G01*
X122175000Y-93500000D02*
X123050000Y-93500000D01*
G75*
G02*
X123125000Y-93575000I0J-75000D01*
G01*
X123125000Y-93725000D01*
G75*
G02*
X123050000Y-93800000I-75000J0D01*
G01*
X122175000Y-93800000D01*
G75*
G02*
X122100000Y-93725000I0J75000D01*
G01*
X122100000Y-93575000D01*
G75*
G02*
X122175000Y-93500000I75000J0D01*
G01*
G37*
G36*
G01*
X122175000Y-94150000D02*
X123050000Y-94150000D01*
G75*
G02*
X123125000Y-94225000I0J-75000D01*
G01*
X123125000Y-94375000D01*
G75*
G02*
X123050000Y-94450000I-75000J0D01*
G01*
X122175000Y-94450000D01*
G75*
G02*
X122100000Y-94375000I0J75000D01*
G01*
X122100000Y-94225000D01*
G75*
G02*
X122175000Y-94150000I75000J0D01*
G01*
G37*
G36*
G01*
X122175000Y-94800000D02*
X123050000Y-94800000D01*
G75*
G02*
X123125000Y-94875000I0J-75000D01*
G01*
X123125000Y-95025000D01*
G75*
G02*
X123050000Y-95100000I-75000J0D01*
G01*
X122175000Y-95100000D01*
G75*
G02*
X122100000Y-95025000I0J75000D01*
G01*
X122100000Y-94875000D01*
G75*
G02*
X122175000Y-94800000I75000J0D01*
G01*
G37*
G36*
G01*
X122175000Y-95450000D02*
X123050000Y-95450000D01*
G75*
G02*
X123125000Y-95525000I0J-75000D01*
G01*
X123125000Y-95675000D01*
G75*
G02*
X123050000Y-95750000I-75000J0D01*
G01*
X122175000Y-95750000D01*
G75*
G02*
X122100000Y-95675000I0J75000D01*
G01*
X122100000Y-95525000D01*
G75*
G02*
X122175000Y-95450000I75000J0D01*
G01*
G37*
G36*
G01*
X122175000Y-96100000D02*
X123050000Y-96100000D01*
G75*
G02*
X123125000Y-96175000I0J-75000D01*
G01*
X123125000Y-96325000D01*
G75*
G02*
X123050000Y-96400000I-75000J0D01*
G01*
X122175000Y-96400000D01*
G75*
G02*
X122100000Y-96325000I0J75000D01*
G01*
X122100000Y-96175000D01*
G75*
G02*
X122175000Y-96100000I75000J0D01*
G01*
G37*
G36*
G01*
X123425000Y-96625000D02*
X123575000Y-96625000D01*
G75*
G02*
X123650000Y-96700000I0J-75000D01*
G01*
X123650000Y-97575000D01*
G75*
G02*
X123575000Y-97650000I-75000J0D01*
G01*
X123425000Y-97650000D01*
G75*
G02*
X123350000Y-97575000I0J75000D01*
G01*
X123350000Y-96700000D01*
G75*
G02*
X123425000Y-96625000I75000J0D01*
G01*
G37*
G36*
G01*
X124075000Y-96625000D02*
X124225000Y-96625000D01*
G75*
G02*
X124300000Y-96700000I0J-75000D01*
G01*
X124300000Y-97575000D01*
G75*
G02*
X124225000Y-97650000I-75000J0D01*
G01*
X124075000Y-97650000D01*
G75*
G02*
X124000000Y-97575000I0J75000D01*
G01*
X124000000Y-96700000D01*
G75*
G02*
X124075000Y-96625000I75000J0D01*
G01*
G37*
G36*
G01*
X124725000Y-96625000D02*
X124875000Y-96625000D01*
G75*
G02*
X124950000Y-96700000I0J-75000D01*
G01*
X124950000Y-97575000D01*
G75*
G02*
X124875000Y-97650000I-75000J0D01*
G01*
X124725000Y-97650000D01*
G75*
G02*
X124650000Y-97575000I0J75000D01*
G01*
X124650000Y-96700000D01*
G75*
G02*
X124725000Y-96625000I75000J0D01*
G01*
G37*
G36*
G01*
X125375000Y-96625000D02*
X125525000Y-96625000D01*
G75*
G02*
X125600000Y-96700000I0J-75000D01*
G01*
X125600000Y-97575000D01*
G75*
G02*
X125525000Y-97650000I-75000J0D01*
G01*
X125375000Y-97650000D01*
G75*
G02*
X125300000Y-97575000I0J75000D01*
G01*
X125300000Y-96700000D01*
G75*
G02*
X125375000Y-96625000I75000J0D01*
G01*
G37*
G36*
G01*
X126025000Y-96625000D02*
X126175000Y-96625000D01*
G75*
G02*
X126250000Y-96700000I0J-75000D01*
G01*
X126250000Y-97575000D01*
G75*
G02*
X126175000Y-97650000I-75000J0D01*
G01*
X126025000Y-97650000D01*
G75*
G02*
X125950000Y-97575000I0J75000D01*
G01*
X125950000Y-96700000D01*
G75*
G02*
X126025000Y-96625000I75000J0D01*
G01*
G37*
G36*
G01*
X126675000Y-96625000D02*
X126825000Y-96625000D01*
G75*
G02*
X126900000Y-96700000I0J-75000D01*
G01*
X126900000Y-97575000D01*
G75*
G02*
X126825000Y-97650000I-75000J0D01*
G01*
X126675000Y-97650000D01*
G75*
G02*
X126600000Y-97575000I0J75000D01*
G01*
X126600000Y-96700000D01*
G75*
G02*
X126675000Y-96625000I75000J0D01*
G01*
G37*
G36*
G01*
X127325000Y-96625000D02*
X127475000Y-96625000D01*
G75*
G02*
X127550000Y-96700000I0J-75000D01*
G01*
X127550000Y-97575000D01*
G75*
G02*
X127475000Y-97650000I-75000J0D01*
G01*
X127325000Y-97650000D01*
G75*
G02*
X127250000Y-97575000I0J75000D01*
G01*
X127250000Y-96700000D01*
G75*
G02*
X127325000Y-96625000I75000J0D01*
G01*
G37*
G36*
G01*
X127850000Y-96100000D02*
X128725000Y-96100000D01*
G75*
G02*
X128800000Y-96175000I0J-75000D01*
G01*
X128800000Y-96325000D01*
G75*
G02*
X128725000Y-96400000I-75000J0D01*
G01*
X127850000Y-96400000D01*
G75*
G02*
X127775000Y-96325000I0J75000D01*
G01*
X127775000Y-96175000D01*
G75*
G02*
X127850000Y-96100000I75000J0D01*
G01*
G37*
G36*
G01*
X127850000Y-95450000D02*
X128725000Y-95450000D01*
G75*
G02*
X128800000Y-95525000I0J-75000D01*
G01*
X128800000Y-95675000D01*
G75*
G02*
X128725000Y-95750000I-75000J0D01*
G01*
X127850000Y-95750000D01*
G75*
G02*
X127775000Y-95675000I0J75000D01*
G01*
X127775000Y-95525000D01*
G75*
G02*
X127850000Y-95450000I75000J0D01*
G01*
G37*
G36*
G01*
X127850000Y-94800000D02*
X128725000Y-94800000D01*
G75*
G02*
X128800000Y-94875000I0J-75000D01*
G01*
X128800000Y-95025000D01*
G75*
G02*
X128725000Y-95100000I-75000J0D01*
G01*
X127850000Y-95100000D01*
G75*
G02*
X127775000Y-95025000I0J75000D01*
G01*
X127775000Y-94875000D01*
G75*
G02*
X127850000Y-94800000I75000J0D01*
G01*
G37*
G36*
G01*
X127850000Y-94150000D02*
X128725000Y-94150000D01*
G75*
G02*
X128800000Y-94225000I0J-75000D01*
G01*
X128800000Y-94375000D01*
G75*
G02*
X128725000Y-94450000I-75000J0D01*
G01*
X127850000Y-94450000D01*
G75*
G02*
X127775000Y-94375000I0J75000D01*
G01*
X127775000Y-94225000D01*
G75*
G02*
X127850000Y-94150000I75000J0D01*
G01*
G37*
G36*
G01*
X127850000Y-93500000D02*
X128725000Y-93500000D01*
G75*
G02*
X128800000Y-93575000I0J-75000D01*
G01*
X128800000Y-93725000D01*
G75*
G02*
X128725000Y-93800000I-75000J0D01*
G01*
X127850000Y-93800000D01*
G75*
G02*
X127775000Y-93725000I0J75000D01*
G01*
X127775000Y-93575000D01*
G75*
G02*
X127850000Y-93500000I75000J0D01*
G01*
G37*
G36*
G01*
X127850000Y-92850000D02*
X128725000Y-92850000D01*
G75*
G02*
X128800000Y-92925000I0J-75000D01*
G01*
X128800000Y-93075000D01*
G75*
G02*
X128725000Y-93150000I-75000J0D01*
G01*
X127850000Y-93150000D01*
G75*
G02*
X127775000Y-93075000I0J75000D01*
G01*
X127775000Y-92925000D01*
G75*
G02*
X127850000Y-92850000I75000J0D01*
G01*
G37*
G36*
G01*
X127850000Y-92200000D02*
X128725000Y-92200000D01*
G75*
G02*
X128800000Y-92275000I0J-75000D01*
G01*
X128800000Y-92425000D01*
G75*
G02*
X128725000Y-92500000I-75000J0D01*
G01*
X127850000Y-92500000D01*
G75*
G02*
X127775000Y-92425000I0J75000D01*
G01*
X127775000Y-92275000D01*
G75*
G02*
X127850000Y-92200000I75000J0D01*
G01*
G37*
G36*
G01*
X126549999Y-92310000D02*
X127190001Y-92310000D01*
G75*
G02*
X127440000Y-92559999I0J-249999D01*
G01*
X127440000Y-93200001D01*
G75*
G02*
X127190001Y-93450000I-249999J0D01*
G01*
X126549999Y-93450000D01*
G75*
G02*
X126300000Y-93200001I0J249999D01*
G01*
X126300000Y-92559999D01*
G75*
G02*
X126549999Y-92310000I249999J0D01*
G01*
G37*
G36*
G01*
X125129999Y-92310000D02*
X125770001Y-92310000D01*
G75*
G02*
X126020000Y-92559999I0J-249999D01*
G01*
X126020000Y-93200001D01*
G75*
G02*
X125770001Y-93450000I-249999J0D01*
G01*
X125129999Y-93450000D01*
G75*
G02*
X124880000Y-93200001I0J249999D01*
G01*
X124880000Y-92559999D01*
G75*
G02*
X125129999Y-92310000I249999J0D01*
G01*
G37*
G36*
G01*
X123709999Y-92310000D02*
X124350001Y-92310000D01*
G75*
G02*
X124600000Y-92559999I0J-249999D01*
G01*
X124600000Y-93200001D01*
G75*
G02*
X124350001Y-93450000I-249999J0D01*
G01*
X123709999Y-93450000D01*
G75*
G02*
X123460000Y-93200001I0J249999D01*
G01*
X123460000Y-92559999D01*
G75*
G02*
X123709999Y-92310000I249999J0D01*
G01*
G37*
G36*
G01*
X126549999Y-93730000D02*
X127190001Y-93730000D01*
G75*
G02*
X127440000Y-93979999I0J-249999D01*
G01*
X127440000Y-94620001D01*
G75*
G02*
X127190001Y-94870000I-249999J0D01*
G01*
X126549999Y-94870000D01*
G75*
G02*
X126300000Y-94620001I0J249999D01*
G01*
X126300000Y-93979999D01*
G75*
G02*
X126549999Y-93730000I249999J0D01*
G01*
G37*
G36*
G01*
X125129999Y-93730000D02*
X125770001Y-93730000D01*
G75*
G02*
X126020000Y-93979999I0J-249999D01*
G01*
X126020000Y-94620001D01*
G75*
G02*
X125770001Y-94870000I-249999J0D01*
G01*
X125129999Y-94870000D01*
G75*
G02*
X124880000Y-94620001I0J249999D01*
G01*
X124880000Y-93979999D01*
G75*
G02*
X125129999Y-93730000I249999J0D01*
G01*
G37*
G36*
G01*
X123709999Y-93730000D02*
X124350001Y-93730000D01*
G75*
G02*
X124600000Y-93979999I0J-249999D01*
G01*
X124600000Y-94620001D01*
G75*
G02*
X124350001Y-94870000I-249999J0D01*
G01*
X123709999Y-94870000D01*
G75*
G02*
X123460000Y-94620001I0J249999D01*
G01*
X123460000Y-93979999D01*
G75*
G02*
X123709999Y-93730000I249999J0D01*
G01*
G37*
G36*
G01*
X126549999Y-95150000D02*
X127190001Y-95150000D01*
G75*
G02*
X127440000Y-95399999I0J-249999D01*
G01*
X127440000Y-96040001D01*
G75*
G02*
X127190001Y-96290000I-249999J0D01*
G01*
X126549999Y-96290000D01*
G75*
G02*
X126300000Y-96040001I0J249999D01*
G01*
X126300000Y-95399999D01*
G75*
G02*
X126549999Y-95150000I249999J0D01*
G01*
G37*
G36*
G01*
X125129999Y-95150000D02*
X125770001Y-95150000D01*
G75*
G02*
X126020000Y-95399999I0J-249999D01*
G01*
X126020000Y-96040001D01*
G75*
G02*
X125770001Y-96290000I-249999J0D01*
G01*
X125129999Y-96290000D01*
G75*
G02*
X124880000Y-96040001I0J249999D01*
G01*
X124880000Y-95399999D01*
G75*
G02*
X125129999Y-95150000I249999J0D01*
G01*
G37*
G36*
G01*
X123709999Y-95150000D02*
X124350001Y-95150000D01*
G75*
G02*
X124600000Y-95399999I0J-249999D01*
G01*
X124600000Y-96040001D01*
G75*
G02*
X124350001Y-96290000I-249999J0D01*
G01*
X123709999Y-96290000D01*
G75*
G02*
X123460000Y-96040001I0J249999D01*
G01*
X123460000Y-95399999D01*
G75*
G02*
X123709999Y-95150000I249999J0D01*
G01*
G37*
%TD*%
D10*
%TO.C,Y1*%
X127250000Y-103550000D03*
X127250000Y-101350000D03*
X125650000Y-101350000D03*
X125650000Y-103550000D03*
%TD*%
M02*
