%TF.GenerationSoftware,KiCad,Pcbnew,(5.1.6)-1*%
%TF.CreationDate,2020-09-26T17:15:15+05:30*%
%TF.ProjectId,ENC28J60_Dev_Board,454e4332-384a-4363-905f-4465765f426f,rev?*%
%TF.SameCoordinates,Original*%
%TF.FileFunction,Legend,Top*%
%TF.FilePolarity,Positive*%
%FSLAX46Y46*%
G04 Gerber Fmt 4.6, Leading zero omitted, Abs format (unit mm)*
G04 Created by KiCad (PCBNEW (5.1.6)-1) date 2020-09-26 17:15:15*
%MOMM*%
%LPD*%
G01*
G04 APERTURE LIST*
%ADD10C,0.150000*%
%ADD11C,0.010000*%
%ADD12C,0.120000*%
G04 APERTURE END LIST*
D10*
X126476190Y-84103571D02*
X126809523Y-84103571D01*
X126952380Y-84627380D02*
X126476190Y-84627380D01*
X126476190Y-83627380D01*
X126952380Y-83627380D01*
X127380952Y-84627380D02*
X127380952Y-83627380D01*
X127952380Y-84627380D01*
X127952380Y-83627380D01*
X129000000Y-84532142D02*
X128952380Y-84579761D01*
X128809523Y-84627380D01*
X128714285Y-84627380D01*
X128571428Y-84579761D01*
X128476190Y-84484523D01*
X128428571Y-84389285D01*
X128380952Y-84198809D01*
X128380952Y-84055952D01*
X128428571Y-83865476D01*
X128476190Y-83770238D01*
X128571428Y-83675000D01*
X128714285Y-83627380D01*
X128809523Y-83627380D01*
X128952380Y-83675000D01*
X129000000Y-83722619D01*
X129380952Y-83722619D02*
X129428571Y-83675000D01*
X129523809Y-83627380D01*
X129761904Y-83627380D01*
X129857142Y-83675000D01*
X129904761Y-83722619D01*
X129952380Y-83817857D01*
X129952380Y-83913095D01*
X129904761Y-84055952D01*
X129333333Y-84627380D01*
X129952380Y-84627380D01*
X130523809Y-84055952D02*
X130428571Y-84008333D01*
X130380952Y-83960714D01*
X130333333Y-83865476D01*
X130333333Y-83817857D01*
X130380952Y-83722619D01*
X130428571Y-83675000D01*
X130523809Y-83627380D01*
X130714285Y-83627380D01*
X130809523Y-83675000D01*
X130857142Y-83722619D01*
X130904761Y-83817857D01*
X130904761Y-83865476D01*
X130857142Y-83960714D01*
X130809523Y-84008333D01*
X130714285Y-84055952D01*
X130523809Y-84055952D01*
X130428571Y-84103571D01*
X130380952Y-84151190D01*
X130333333Y-84246428D01*
X130333333Y-84436904D01*
X130380952Y-84532142D01*
X130428571Y-84579761D01*
X130523809Y-84627380D01*
X130714285Y-84627380D01*
X130809523Y-84579761D01*
X130857142Y-84532142D01*
X130904761Y-84436904D01*
X130904761Y-84246428D01*
X130857142Y-84151190D01*
X130809523Y-84103571D01*
X130714285Y-84055952D01*
X131619047Y-83627380D02*
X131619047Y-84341666D01*
X131571428Y-84484523D01*
X131476190Y-84579761D01*
X131333333Y-84627380D01*
X131238095Y-84627380D01*
X132523809Y-83627380D02*
X132333333Y-83627380D01*
X132238095Y-83675000D01*
X132190476Y-83722619D01*
X132095238Y-83865476D01*
X132047619Y-84055952D01*
X132047619Y-84436904D01*
X132095238Y-84532142D01*
X132142857Y-84579761D01*
X132238095Y-84627380D01*
X132428571Y-84627380D01*
X132523809Y-84579761D01*
X132571428Y-84532142D01*
X132619047Y-84436904D01*
X132619047Y-84198809D01*
X132571428Y-84103571D01*
X132523809Y-84055952D01*
X132428571Y-84008333D01*
X132238095Y-84008333D01*
X132142857Y-84055952D01*
X132095238Y-84103571D01*
X132047619Y-84198809D01*
X133238095Y-83627380D02*
X133333333Y-83627380D01*
X133428571Y-83675000D01*
X133476190Y-83722619D01*
X133523809Y-83817857D01*
X133571428Y-84008333D01*
X133571428Y-84246428D01*
X133523809Y-84436904D01*
X133476190Y-84532142D01*
X133428571Y-84579761D01*
X133333333Y-84627380D01*
X133238095Y-84627380D01*
X133142857Y-84579761D01*
X133095238Y-84532142D01*
X133047619Y-84436904D01*
X133000000Y-84246428D01*
X133000000Y-84008333D01*
X133047619Y-83817857D01*
X133095238Y-83722619D01*
X133142857Y-83675000D01*
X133238095Y-83627380D01*
X127285714Y-85753571D02*
X127428571Y-85801190D01*
X127476190Y-85848809D01*
X127523809Y-85944047D01*
X127523809Y-86086904D01*
X127476190Y-86182142D01*
X127428571Y-86229761D01*
X127333333Y-86277380D01*
X126952380Y-86277380D01*
X126952380Y-85277380D01*
X127285714Y-85277380D01*
X127380952Y-85325000D01*
X127428571Y-85372619D01*
X127476190Y-85467857D01*
X127476190Y-85563095D01*
X127428571Y-85658333D01*
X127380952Y-85705952D01*
X127285714Y-85753571D01*
X126952380Y-85753571D01*
X127952380Y-86277380D02*
X127952380Y-85610714D01*
X127952380Y-85801190D02*
X128000000Y-85705952D01*
X128047619Y-85658333D01*
X128142857Y-85610714D01*
X128238095Y-85610714D01*
X128952380Y-86229761D02*
X128857142Y-86277380D01*
X128666666Y-86277380D01*
X128571428Y-86229761D01*
X128523809Y-86134523D01*
X128523809Y-85753571D01*
X128571428Y-85658333D01*
X128666666Y-85610714D01*
X128857142Y-85610714D01*
X128952380Y-85658333D01*
X129000000Y-85753571D01*
X129000000Y-85848809D01*
X128523809Y-85944047D01*
X129857142Y-86277380D02*
X129857142Y-85753571D01*
X129809523Y-85658333D01*
X129714285Y-85610714D01*
X129523809Y-85610714D01*
X129428571Y-85658333D01*
X129857142Y-86229761D02*
X129761904Y-86277380D01*
X129523809Y-86277380D01*
X129428571Y-86229761D01*
X129380952Y-86134523D01*
X129380952Y-86039285D01*
X129428571Y-85944047D01*
X129523809Y-85896428D01*
X129761904Y-85896428D01*
X129857142Y-85848809D01*
X130333333Y-86277380D02*
X130333333Y-85277380D01*
X130428571Y-85896428D02*
X130714285Y-86277380D01*
X130714285Y-85610714D02*
X130333333Y-85991666D01*
X131285714Y-86277380D02*
X131190476Y-86229761D01*
X131142857Y-86182142D01*
X131095238Y-86086904D01*
X131095238Y-85801190D01*
X131142857Y-85705952D01*
X131190476Y-85658333D01*
X131285714Y-85610714D01*
X131428571Y-85610714D01*
X131523809Y-85658333D01*
X131571428Y-85705952D01*
X131619047Y-85801190D01*
X131619047Y-86086904D01*
X131571428Y-86182142D01*
X131523809Y-86229761D01*
X131428571Y-86277380D01*
X131285714Y-86277380D01*
X132476190Y-85610714D02*
X132476190Y-86277380D01*
X132047619Y-85610714D02*
X132047619Y-86134523D01*
X132095238Y-86229761D01*
X132190476Y-86277380D01*
X132333333Y-86277380D01*
X132428571Y-86229761D01*
X132476190Y-86182142D01*
X132809523Y-85610714D02*
X133190476Y-85610714D01*
X132952380Y-85277380D02*
X132952380Y-86134523D01*
X133000000Y-86229761D01*
X133095238Y-86277380D01*
X133190476Y-86277380D01*
D11*
%TO.C,G\u002A\u002A\u002A*%
G36*
X137470145Y-102295129D02*
G01*
X137605194Y-102336391D01*
X137783798Y-102397010D01*
X137931091Y-102450177D01*
X138379391Y-102604943D01*
X138841880Y-102744490D01*
X139300851Y-102864737D01*
X139738597Y-102961599D01*
X140137413Y-103030993D01*
X140479590Y-103068836D01*
X140639332Y-103074724D01*
X140798335Y-103081350D01*
X140887806Y-103105042D01*
X140929931Y-103151951D01*
X140931473Y-103155728D01*
X140943583Y-103227577D01*
X140956817Y-103374321D01*
X140969990Y-103578518D01*
X140981923Y-103822729D01*
X140988584Y-103998546D01*
X140980612Y-104894357D01*
X140895222Y-105743477D01*
X140732713Y-106544692D01*
X140493388Y-107296786D01*
X140177546Y-107998546D01*
X139868352Y-108525387D01*
X139682438Y-108777640D01*
X139441241Y-109058362D01*
X139166738Y-109345407D01*
X138880908Y-109616628D01*
X138605727Y-109849877D01*
X138416000Y-109988950D01*
X138272413Y-110080257D01*
X138096879Y-110185136D01*
X137907948Y-110293353D01*
X137724175Y-110394678D01*
X137564110Y-110478878D01*
X137446306Y-110535723D01*
X137389608Y-110555016D01*
X137345987Y-110534310D01*
X137239801Y-110479983D01*
X137090020Y-110401801D01*
X137007455Y-110358268D01*
X136594666Y-110123838D01*
X136238705Y-109882589D01*
X135905808Y-109609693D01*
X135617899Y-109336442D01*
X135216062Y-108895490D01*
X134877445Y-108433998D01*
X134590423Y-107932690D01*
X134343369Y-107372287D01*
X134210522Y-107002763D01*
X134079750Y-106580707D01*
X133980138Y-106181376D01*
X133908273Y-105781638D01*
X133860741Y-105358360D01*
X133834130Y-104888408D01*
X133825173Y-104391091D01*
X133825265Y-104327372D01*
X134906182Y-104327372D01*
X134906182Y-106581548D01*
X135067819Y-106875609D01*
X135149308Y-107032276D01*
X135197836Y-107159302D01*
X135221973Y-107292515D01*
X135230286Y-107467742D01*
X135231103Y-107558381D01*
X135232751Y-107947091D01*
X136004648Y-108785581D01*
X136264002Y-109063870D01*
X136474261Y-109282137D01*
X136632907Y-109437935D01*
X136737423Y-109528815D01*
X136785291Y-109552329D01*
X136788086Y-109547581D01*
X136785156Y-109483449D01*
X136771169Y-109340162D01*
X136747573Y-109130079D01*
X136715817Y-108865558D01*
X136677352Y-108558956D01*
X136633626Y-108222633D01*
X136625496Y-108161304D01*
X136451367Y-106851517D01*
X136052396Y-106691863D01*
X135653425Y-106532208D01*
X135621304Y-106255452D01*
X135606817Y-106106717D01*
X135601665Y-106000186D01*
X135605592Y-105962981D01*
X135651794Y-105973120D01*
X135764192Y-106011535D01*
X135923830Y-106070721D01*
X136111749Y-106143173D01*
X136308996Y-106221389D01*
X136496611Y-106297862D01*
X136655640Y-106365090D01*
X136767126Y-106415568D01*
X136810728Y-106440052D01*
X136818705Y-106497580D01*
X136810522Y-106622662D01*
X136788057Y-106792267D01*
X136776155Y-106863673D01*
X136744791Y-107050244D01*
X136721183Y-107206638D01*
X136709151Y-107306930D01*
X136708376Y-107323637D01*
X136745244Y-107377818D01*
X136843342Y-107465740D01*
X136985280Y-107572667D01*
X137071991Y-107631777D01*
X137434628Y-107870645D01*
X138171964Y-107376995D01*
X138092720Y-106907953D01*
X138013475Y-106438911D01*
X138110829Y-106401560D01*
X138190439Y-106370225D01*
X138335106Y-106312568D01*
X138524228Y-106236822D01*
X138735953Y-106151724D01*
X138938746Y-106071748D01*
X139108069Y-106008132D01*
X139227012Y-105967004D01*
X139278668Y-105954489D01*
X139279336Y-105954851D01*
X139278968Y-106004525D01*
X139262654Y-106118870D01*
X139236474Y-106260051D01*
X139178000Y-106549641D01*
X138831637Y-106686056D01*
X138664432Y-106754601D01*
X138530443Y-106814516D01*
X138453312Y-106855086D01*
X138445716Y-106860920D01*
X138431379Y-106912815D01*
X138407496Y-107041950D01*
X138375982Y-107234530D01*
X138338749Y-107476760D01*
X138297711Y-107754846D01*
X138254781Y-108054992D01*
X138211874Y-108363404D01*
X138170902Y-108666286D01*
X138133778Y-108949845D01*
X138102417Y-109200284D01*
X138078732Y-109403810D01*
X138064637Y-109546627D01*
X138062044Y-109614940D01*
X138063201Y-109618595D01*
X138097210Y-109590263D01*
X138184783Y-109502372D01*
X138317477Y-109363822D01*
X138486850Y-109183510D01*
X138684461Y-108970335D01*
X138868696Y-108769540D01*
X139658540Y-107904834D01*
X139631889Y-107556508D01*
X139620671Y-107373245D01*
X139626569Y-107244061D01*
X139657749Y-107131108D01*
X139722377Y-106996535D01*
X139772620Y-106904165D01*
X139940000Y-106600148D01*
X139940000Y-104325100D01*
X138727728Y-103928044D01*
X138407572Y-103823828D01*
X138114107Y-103729528D01*
X137859361Y-103648911D01*
X137655364Y-103585744D01*
X137514145Y-103543796D01*
X137447732Y-103526832D01*
X137446182Y-103526677D01*
X137385670Y-103539412D01*
X137249366Y-103577515D01*
X137049171Y-103637355D01*
X136796987Y-103715299D01*
X136504715Y-103807714D01*
X136184255Y-103910969D01*
X136141546Y-103924869D01*
X134906182Y-104327372D01*
X133825265Y-104327372D01*
X133825613Y-104089336D01*
X133828275Y-103887178D01*
X135425965Y-103887178D01*
X135472840Y-103878249D01*
X135594544Y-103843590D01*
X135778434Y-103787125D01*
X136011867Y-103712780D01*
X136282198Y-103624480D01*
X136426757Y-103576488D01*
X137410071Y-103248321D01*
X138455672Y-103595827D01*
X138748993Y-103693288D01*
X139011821Y-103780571D01*
X139231909Y-103853610D01*
X139397007Y-103908344D01*
X139494866Y-103940708D01*
X139516699Y-103947849D01*
X139499916Y-103918187D01*
X139440155Y-103837309D01*
X139387886Y-103770247D01*
X139150546Y-103533688D01*
X138841500Y-103323350D01*
X138479990Y-103149340D01*
X138085256Y-103021767D01*
X137880557Y-102978399D01*
X137474920Y-102945085D01*
X137054428Y-102977599D01*
X136638297Y-103069932D01*
X136245745Y-103216079D01*
X135895986Y-103410031D01*
X135608237Y-103645782D01*
X135551897Y-103706366D01*
X135471217Y-103805390D01*
X135428080Y-103872651D01*
X135425965Y-103887178D01*
X133828275Y-103887178D01*
X133829309Y-103808674D01*
X133835782Y-103566000D01*
X133844551Y-103378208D01*
X133855137Y-103262194D01*
X133857638Y-103248091D01*
X133894367Y-103074909D01*
X134157820Y-103074724D01*
X134512500Y-103053122D01*
X134933263Y-102991045D01*
X135404926Y-102891915D01*
X135912307Y-102759156D01*
X136440224Y-102596191D01*
X136741391Y-102492216D01*
X136963660Y-102414181D01*
X137158316Y-102349029D01*
X137307064Y-102302653D01*
X137391607Y-102280947D01*
X137400000Y-102280064D01*
X137470145Y-102295129D01*
G37*
X137470145Y-102295129D02*
X137605194Y-102336391D01*
X137783798Y-102397010D01*
X137931091Y-102450177D01*
X138379391Y-102604943D01*
X138841880Y-102744490D01*
X139300851Y-102864737D01*
X139738597Y-102961599D01*
X140137413Y-103030993D01*
X140479590Y-103068836D01*
X140639332Y-103074724D01*
X140798335Y-103081350D01*
X140887806Y-103105042D01*
X140929931Y-103151951D01*
X140931473Y-103155728D01*
X140943583Y-103227577D01*
X140956817Y-103374321D01*
X140969990Y-103578518D01*
X140981923Y-103822729D01*
X140988584Y-103998546D01*
X140980612Y-104894357D01*
X140895222Y-105743477D01*
X140732713Y-106544692D01*
X140493388Y-107296786D01*
X140177546Y-107998546D01*
X139868352Y-108525387D01*
X139682438Y-108777640D01*
X139441241Y-109058362D01*
X139166738Y-109345407D01*
X138880908Y-109616628D01*
X138605727Y-109849877D01*
X138416000Y-109988950D01*
X138272413Y-110080257D01*
X138096879Y-110185136D01*
X137907948Y-110293353D01*
X137724175Y-110394678D01*
X137564110Y-110478878D01*
X137446306Y-110535723D01*
X137389608Y-110555016D01*
X137345987Y-110534310D01*
X137239801Y-110479983D01*
X137090020Y-110401801D01*
X137007455Y-110358268D01*
X136594666Y-110123838D01*
X136238705Y-109882589D01*
X135905808Y-109609693D01*
X135617899Y-109336442D01*
X135216062Y-108895490D01*
X134877445Y-108433998D01*
X134590423Y-107932690D01*
X134343369Y-107372287D01*
X134210522Y-107002763D01*
X134079750Y-106580707D01*
X133980138Y-106181376D01*
X133908273Y-105781638D01*
X133860741Y-105358360D01*
X133834130Y-104888408D01*
X133825173Y-104391091D01*
X133825265Y-104327372D01*
X134906182Y-104327372D01*
X134906182Y-106581548D01*
X135067819Y-106875609D01*
X135149308Y-107032276D01*
X135197836Y-107159302D01*
X135221973Y-107292515D01*
X135230286Y-107467742D01*
X135231103Y-107558381D01*
X135232751Y-107947091D01*
X136004648Y-108785581D01*
X136264002Y-109063870D01*
X136474261Y-109282137D01*
X136632907Y-109437935D01*
X136737423Y-109528815D01*
X136785291Y-109552329D01*
X136788086Y-109547581D01*
X136785156Y-109483449D01*
X136771169Y-109340162D01*
X136747573Y-109130079D01*
X136715817Y-108865558D01*
X136677352Y-108558956D01*
X136633626Y-108222633D01*
X136625496Y-108161304D01*
X136451367Y-106851517D01*
X136052396Y-106691863D01*
X135653425Y-106532208D01*
X135621304Y-106255452D01*
X135606817Y-106106717D01*
X135601665Y-106000186D01*
X135605592Y-105962981D01*
X135651794Y-105973120D01*
X135764192Y-106011535D01*
X135923830Y-106070721D01*
X136111749Y-106143173D01*
X136308996Y-106221389D01*
X136496611Y-106297862D01*
X136655640Y-106365090D01*
X136767126Y-106415568D01*
X136810728Y-106440052D01*
X136818705Y-106497580D01*
X136810522Y-106622662D01*
X136788057Y-106792267D01*
X136776155Y-106863673D01*
X136744791Y-107050244D01*
X136721183Y-107206638D01*
X136709151Y-107306930D01*
X136708376Y-107323637D01*
X136745244Y-107377818D01*
X136843342Y-107465740D01*
X136985280Y-107572667D01*
X137071991Y-107631777D01*
X137434628Y-107870645D01*
X138171964Y-107376995D01*
X138092720Y-106907953D01*
X138013475Y-106438911D01*
X138110829Y-106401560D01*
X138190439Y-106370225D01*
X138335106Y-106312568D01*
X138524228Y-106236822D01*
X138735953Y-106151724D01*
X138938746Y-106071748D01*
X139108069Y-106008132D01*
X139227012Y-105967004D01*
X139278668Y-105954489D01*
X139279336Y-105954851D01*
X139278968Y-106004525D01*
X139262654Y-106118870D01*
X139236474Y-106260051D01*
X139178000Y-106549641D01*
X138831637Y-106686056D01*
X138664432Y-106754601D01*
X138530443Y-106814516D01*
X138453312Y-106855086D01*
X138445716Y-106860920D01*
X138431379Y-106912815D01*
X138407496Y-107041950D01*
X138375982Y-107234530D01*
X138338749Y-107476760D01*
X138297711Y-107754846D01*
X138254781Y-108054992D01*
X138211874Y-108363404D01*
X138170902Y-108666286D01*
X138133778Y-108949845D01*
X138102417Y-109200284D01*
X138078732Y-109403810D01*
X138064637Y-109546627D01*
X138062044Y-109614940D01*
X138063201Y-109618595D01*
X138097210Y-109590263D01*
X138184783Y-109502372D01*
X138317477Y-109363822D01*
X138486850Y-109183510D01*
X138684461Y-108970335D01*
X138868696Y-108769540D01*
X139658540Y-107904834D01*
X139631889Y-107556508D01*
X139620671Y-107373245D01*
X139626569Y-107244061D01*
X139657749Y-107131108D01*
X139722377Y-106996535D01*
X139772620Y-106904165D01*
X139940000Y-106600148D01*
X139940000Y-104325100D01*
X138727728Y-103928044D01*
X138407572Y-103823828D01*
X138114107Y-103729528D01*
X137859361Y-103648911D01*
X137655364Y-103585744D01*
X137514145Y-103543796D01*
X137447732Y-103526832D01*
X137446182Y-103526677D01*
X137385670Y-103539412D01*
X137249366Y-103577515D01*
X137049171Y-103637355D01*
X136796987Y-103715299D01*
X136504715Y-103807714D01*
X136184255Y-103910969D01*
X136141546Y-103924869D01*
X134906182Y-104327372D01*
X133825265Y-104327372D01*
X133825613Y-104089336D01*
X133828275Y-103887178D01*
X135425965Y-103887178D01*
X135472840Y-103878249D01*
X135594544Y-103843590D01*
X135778434Y-103787125D01*
X136011867Y-103712780D01*
X136282198Y-103624480D01*
X136426757Y-103576488D01*
X137410071Y-103248321D01*
X138455672Y-103595827D01*
X138748993Y-103693288D01*
X139011821Y-103780571D01*
X139231909Y-103853610D01*
X139397007Y-103908344D01*
X139494866Y-103940708D01*
X139516699Y-103947849D01*
X139499916Y-103918187D01*
X139440155Y-103837309D01*
X139387886Y-103770247D01*
X139150546Y-103533688D01*
X138841500Y-103323350D01*
X138479990Y-103149340D01*
X138085256Y-103021767D01*
X137880557Y-102978399D01*
X137474920Y-102945085D01*
X137054428Y-102977599D01*
X136638297Y-103069932D01*
X136245745Y-103216079D01*
X135895986Y-103410031D01*
X135608237Y-103645782D01*
X135551897Y-103706366D01*
X135471217Y-103805390D01*
X135428080Y-103872651D01*
X135425965Y-103887178D01*
X133828275Y-103887178D01*
X133829309Y-103808674D01*
X133835782Y-103566000D01*
X133844551Y-103378208D01*
X133855137Y-103262194D01*
X133857638Y-103248091D01*
X133894367Y-103074909D01*
X134157820Y-103074724D01*
X134512500Y-103053122D01*
X134933263Y-102991045D01*
X135404926Y-102891915D01*
X135912307Y-102759156D01*
X136440224Y-102596191D01*
X136741391Y-102492216D01*
X136963660Y-102414181D01*
X137158316Y-102349029D01*
X137307064Y-102302653D01*
X137391607Y-102280947D01*
X137400000Y-102280064D01*
X137470145Y-102295129D01*
D12*
%TO.C,C1*%
X123587221Y-99510000D02*
X123912779Y-99510000D01*
X123587221Y-98490000D02*
X123912779Y-98490000D01*
%TO.C,C2*%
X110299721Y-96990000D02*
X110625279Y-96990000D01*
X110299721Y-98010000D02*
X110625279Y-98010000D01*
%TO.C,C3*%
X131837221Y-94760000D02*
X132162779Y-94760000D01*
X131837221Y-93740000D02*
X132162779Y-93740000D01*
%TO.C,C4*%
X121260000Y-86337221D02*
X121260000Y-86662779D01*
X120240000Y-86337221D02*
X120240000Y-86662779D01*
%TO.C,C5*%
X111010000Y-86662779D02*
X111010000Y-86337221D01*
X109990000Y-86662779D02*
X109990000Y-86337221D01*
%TO.C,C6*%
X139337221Y-88510000D02*
X139662779Y-88510000D01*
X139337221Y-87490000D02*
X139662779Y-87490000D01*
%TO.C,C7*%
X139337221Y-85490000D02*
X139662779Y-85490000D01*
X139337221Y-86510000D02*
X139662779Y-86510000D01*
%TO.C,C8*%
X129760000Y-102927780D02*
X129760000Y-102602222D01*
X128740000Y-102927780D02*
X128740000Y-102602222D01*
%TO.C,C9*%
X122990000Y-102912779D02*
X122990000Y-102587221D01*
X124010000Y-102912779D02*
X124010000Y-102587221D01*
%TO.C,C10*%
X110337221Y-93260000D02*
X110662779Y-93260000D01*
X110337221Y-92240000D02*
X110662779Y-92240000D01*
%TO.C,C11*%
X129049721Y-98490000D02*
X129375279Y-98490000D01*
X129049721Y-99510000D02*
X129375279Y-99510000D01*
%TO.C,J1*%
X104700000Y-85970000D02*
X102700000Y-85970000D01*
X86370000Y-86170000D02*
X98810000Y-86170000D01*
X86370000Y-102120000D02*
X86370000Y-86170000D01*
X98810000Y-102120000D02*
X86370000Y-102120000D01*
X108290000Y-102120000D02*
X102010000Y-102120000D01*
X108290000Y-86170000D02*
X108290000Y-102120000D01*
X102010000Y-86170000D02*
X108290000Y-86170000D01*
%TO.C,J2*%
X138480000Y-89980000D02*
X139750000Y-89980000D01*
X138480000Y-91250000D02*
X138480000Y-89980000D01*
X140792929Y-99250000D02*
X141247071Y-99250000D01*
X140792929Y-98490000D02*
X141247071Y-98490000D01*
X143332929Y-99250000D02*
X143730000Y-99250000D01*
X143332929Y-98490000D02*
X143730000Y-98490000D01*
X152390000Y-99250000D02*
X146390000Y-99250000D01*
X152390000Y-98490000D02*
X152390000Y-99250000D01*
X146390000Y-98490000D02*
X152390000Y-98490000D01*
X143730000Y-97600000D02*
X146390000Y-97600000D01*
X140792929Y-96710000D02*
X141247071Y-96710000D01*
X140792929Y-95950000D02*
X141247071Y-95950000D01*
X143332929Y-96710000D02*
X143730000Y-96710000D01*
X143332929Y-95950000D02*
X143730000Y-95950000D01*
X152390000Y-96710000D02*
X146390000Y-96710000D01*
X152390000Y-95950000D02*
X152390000Y-96710000D01*
X146390000Y-95950000D02*
X152390000Y-95950000D01*
X143730000Y-95060000D02*
X146390000Y-95060000D01*
X140792929Y-94170000D02*
X141247071Y-94170000D01*
X140792929Y-93410000D02*
X141247071Y-93410000D01*
X143332929Y-94170000D02*
X143730000Y-94170000D01*
X143332929Y-93410000D02*
X143730000Y-93410000D01*
X152390000Y-94170000D02*
X146390000Y-94170000D01*
X152390000Y-93410000D02*
X152390000Y-94170000D01*
X146390000Y-93410000D02*
X152390000Y-93410000D01*
X143730000Y-92520000D02*
X146390000Y-92520000D01*
X140860000Y-91630000D02*
X141247071Y-91630000D01*
X140860000Y-90870000D02*
X141247071Y-90870000D01*
X143332929Y-91630000D02*
X143730000Y-91630000D01*
X143332929Y-90870000D02*
X143730000Y-90870000D01*
X146390000Y-91530000D02*
X152390000Y-91530000D01*
X146390000Y-91410000D02*
X152390000Y-91410000D01*
X146390000Y-91290000D02*
X152390000Y-91290000D01*
X146390000Y-91170000D02*
X152390000Y-91170000D01*
X146390000Y-91050000D02*
X152390000Y-91050000D01*
X146390000Y-90930000D02*
X152390000Y-90930000D01*
X152390000Y-91630000D02*
X146390000Y-91630000D01*
X152390000Y-90870000D02*
X152390000Y-91630000D01*
X146390000Y-90870000D02*
X152390000Y-90870000D01*
X146390000Y-89920000D02*
X143730000Y-89920000D01*
X146390000Y-100200000D02*
X146390000Y-89920000D01*
X143730000Y-100200000D02*
X146390000Y-100200000D01*
X143730000Y-89920000D02*
X143730000Y-100200000D01*
%TO.C,R1*%
X94337221Y-83760000D02*
X94662779Y-83760000D01*
X94337221Y-82740000D02*
X94662779Y-82740000D01*
%TO.C,R2*%
X91587221Y-105510000D02*
X91912779Y-105510000D01*
X91587221Y-104490000D02*
X91912779Y-104490000D01*
%TO.C,R3*%
X118837221Y-93490000D02*
X119162779Y-93490000D01*
X118837221Y-94510000D02*
X119162779Y-94510000D01*
%TO.C,R4*%
X116490000Y-89662779D02*
X116490000Y-89337221D01*
X117510000Y-89662779D02*
X117510000Y-89337221D01*
%TO.C,R5*%
X118490000Y-89662779D02*
X118490000Y-89337221D01*
X119510000Y-89662779D02*
X119510000Y-89337221D01*
%TO.C,R6*%
X113260000Y-89662779D02*
X113260000Y-89337221D01*
X112240000Y-89662779D02*
X112240000Y-89337221D01*
%TO.C,R7*%
X114240000Y-89662779D02*
X114240000Y-89337221D01*
X115260000Y-89662779D02*
X115260000Y-89337221D01*
%TO.C,R8*%
X119837221Y-97260000D02*
X120162779Y-97260000D01*
X119837221Y-96240000D02*
X120162779Y-96240000D01*
%TO.C,U1*%
X128560000Y-91940000D02*
X128560000Y-91190000D01*
X122340000Y-97410000D02*
X123090000Y-97410000D01*
X122340000Y-96660000D02*
X122340000Y-97410000D01*
X122340000Y-91190000D02*
X123090000Y-91190000D01*
X122340000Y-91940000D02*
X122340000Y-91190000D01*
X128560000Y-97410000D02*
X127810000Y-97410000D01*
X128560000Y-96660000D02*
X128560000Y-97410000D01*
%TO.C,Y1*%
X128050000Y-104450000D02*
X128050000Y-100450000D01*
X124850000Y-104450000D02*
X128050000Y-104450000D01*
%TO.C,C1*%
D10*
X123583333Y-97927142D02*
X123535714Y-97974761D01*
X123392857Y-98022380D01*
X123297619Y-98022380D01*
X123154761Y-97974761D01*
X123059523Y-97879523D01*
X123011904Y-97784285D01*
X122964285Y-97593809D01*
X122964285Y-97450952D01*
X123011904Y-97260476D01*
X123059523Y-97165238D01*
X123154761Y-97070000D01*
X123297619Y-97022380D01*
X123392857Y-97022380D01*
X123535714Y-97070000D01*
X123583333Y-97117619D01*
X124535714Y-98022380D02*
X123964285Y-98022380D01*
X124250000Y-98022380D02*
X124250000Y-97022380D01*
X124154761Y-97165238D01*
X124059523Y-97260476D01*
X123964285Y-97308095D01*
%TO.C,C2*%
X112795833Y-97607142D02*
X112748214Y-97654761D01*
X112605357Y-97702380D01*
X112510119Y-97702380D01*
X112367261Y-97654761D01*
X112272023Y-97559523D01*
X112224404Y-97464285D01*
X112176785Y-97273809D01*
X112176785Y-97130952D01*
X112224404Y-96940476D01*
X112272023Y-96845238D01*
X112367261Y-96750000D01*
X112510119Y-96702380D01*
X112605357Y-96702380D01*
X112748214Y-96750000D01*
X112795833Y-96797619D01*
X113176785Y-96797619D02*
X113224404Y-96750000D01*
X113319642Y-96702380D01*
X113557738Y-96702380D01*
X113652976Y-96750000D01*
X113700595Y-96797619D01*
X113748214Y-96892857D01*
X113748214Y-96988095D01*
X113700595Y-97130952D01*
X113129166Y-97702380D01*
X113748214Y-97702380D01*
%TO.C,C3*%
X134333333Y-94607142D02*
X134285714Y-94654761D01*
X134142857Y-94702380D01*
X134047619Y-94702380D01*
X133904761Y-94654761D01*
X133809523Y-94559523D01*
X133761904Y-94464285D01*
X133714285Y-94273809D01*
X133714285Y-94130952D01*
X133761904Y-93940476D01*
X133809523Y-93845238D01*
X133904761Y-93750000D01*
X134047619Y-93702380D01*
X134142857Y-93702380D01*
X134285714Y-93750000D01*
X134333333Y-93797619D01*
X134666666Y-93702380D02*
X135285714Y-93702380D01*
X134952380Y-94083333D01*
X135095238Y-94083333D01*
X135190476Y-94130952D01*
X135238095Y-94178571D01*
X135285714Y-94273809D01*
X135285714Y-94511904D01*
X135238095Y-94607142D01*
X135190476Y-94654761D01*
X135095238Y-94702380D01*
X134809523Y-94702380D01*
X134714285Y-94654761D01*
X134666666Y-94607142D01*
%TO.C,C4*%
X122537142Y-86666666D02*
X122584761Y-86714285D01*
X122632380Y-86857142D01*
X122632380Y-86952380D01*
X122584761Y-87095238D01*
X122489523Y-87190476D01*
X122394285Y-87238095D01*
X122203809Y-87285714D01*
X122060952Y-87285714D01*
X121870476Y-87238095D01*
X121775238Y-87190476D01*
X121680000Y-87095238D01*
X121632380Y-86952380D01*
X121632380Y-86857142D01*
X121680000Y-86714285D01*
X121727619Y-86666666D01*
X121965714Y-85809523D02*
X122632380Y-85809523D01*
X121584761Y-86047619D02*
X122299047Y-86285714D01*
X122299047Y-85666666D01*
%TO.C,C5*%
X109427142Y-86666666D02*
X109474761Y-86714285D01*
X109522380Y-86857142D01*
X109522380Y-86952380D01*
X109474761Y-87095238D01*
X109379523Y-87190476D01*
X109284285Y-87238095D01*
X109093809Y-87285714D01*
X108950952Y-87285714D01*
X108760476Y-87238095D01*
X108665238Y-87190476D01*
X108570000Y-87095238D01*
X108522380Y-86952380D01*
X108522380Y-86857142D01*
X108570000Y-86714285D01*
X108617619Y-86666666D01*
X108522380Y-85761904D02*
X108522380Y-86238095D01*
X108998571Y-86285714D01*
X108950952Y-86238095D01*
X108903333Y-86142857D01*
X108903333Y-85904761D01*
X108950952Y-85809523D01*
X108998571Y-85761904D01*
X109093809Y-85714285D01*
X109331904Y-85714285D01*
X109427142Y-85761904D01*
X109474761Y-85809523D01*
X109522380Y-85904761D01*
X109522380Y-86142857D01*
X109474761Y-86238095D01*
X109427142Y-86285714D01*
%TO.C,C6*%
X136333333Y-88357142D02*
X136285714Y-88404761D01*
X136142857Y-88452380D01*
X136047619Y-88452380D01*
X135904761Y-88404761D01*
X135809523Y-88309523D01*
X135761904Y-88214285D01*
X135714285Y-88023809D01*
X135714285Y-87880952D01*
X135761904Y-87690476D01*
X135809523Y-87595238D01*
X135904761Y-87500000D01*
X136047619Y-87452380D01*
X136142857Y-87452380D01*
X136285714Y-87500000D01*
X136333333Y-87547619D01*
X137190476Y-87452380D02*
X137000000Y-87452380D01*
X136904761Y-87500000D01*
X136857142Y-87547619D01*
X136761904Y-87690476D01*
X136714285Y-87880952D01*
X136714285Y-88261904D01*
X136761904Y-88357142D01*
X136809523Y-88404761D01*
X136904761Y-88452380D01*
X137095238Y-88452380D01*
X137190476Y-88404761D01*
X137238095Y-88357142D01*
X137285714Y-88261904D01*
X137285714Y-88023809D01*
X137238095Y-87928571D01*
X137190476Y-87880952D01*
X137095238Y-87833333D01*
X136904761Y-87833333D01*
X136809523Y-87880952D01*
X136761904Y-87928571D01*
X136714285Y-88023809D01*
%TO.C,C7*%
X136333333Y-86357142D02*
X136285714Y-86404761D01*
X136142857Y-86452380D01*
X136047619Y-86452380D01*
X135904761Y-86404761D01*
X135809523Y-86309523D01*
X135761904Y-86214285D01*
X135714285Y-86023809D01*
X135714285Y-85880952D01*
X135761904Y-85690476D01*
X135809523Y-85595238D01*
X135904761Y-85500000D01*
X136047619Y-85452380D01*
X136142857Y-85452380D01*
X136285714Y-85500000D01*
X136333333Y-85547619D01*
X136666666Y-85452380D02*
X137333333Y-85452380D01*
X136904761Y-86452380D01*
%TO.C,C8*%
X131107142Y-102916666D02*
X131154761Y-102964285D01*
X131202380Y-103107142D01*
X131202380Y-103202380D01*
X131154761Y-103345238D01*
X131059523Y-103440476D01*
X130964285Y-103488095D01*
X130773809Y-103535714D01*
X130630952Y-103535714D01*
X130440476Y-103488095D01*
X130345238Y-103440476D01*
X130250000Y-103345238D01*
X130202380Y-103202380D01*
X130202380Y-103107142D01*
X130250000Y-102964285D01*
X130297619Y-102916666D01*
X130630952Y-102345238D02*
X130583333Y-102440476D01*
X130535714Y-102488095D01*
X130440476Y-102535714D01*
X130392857Y-102535714D01*
X130297619Y-102488095D01*
X130250000Y-102440476D01*
X130202380Y-102345238D01*
X130202380Y-102154761D01*
X130250000Y-102059523D01*
X130297619Y-102011904D01*
X130392857Y-101964285D01*
X130440476Y-101964285D01*
X130535714Y-102011904D01*
X130583333Y-102059523D01*
X130630952Y-102154761D01*
X130630952Y-102345238D01*
X130678571Y-102440476D01*
X130726190Y-102488095D01*
X130821428Y-102535714D01*
X131011904Y-102535714D01*
X131107142Y-102488095D01*
X131154761Y-102440476D01*
X131202380Y-102345238D01*
X131202380Y-102154761D01*
X131154761Y-102059523D01*
X131107142Y-102011904D01*
X131011904Y-101964285D01*
X130821428Y-101964285D01*
X130726190Y-102011904D01*
X130678571Y-102059523D01*
X130630952Y-102154761D01*
%TO.C,C9*%
X123857142Y-100416666D02*
X123904761Y-100464285D01*
X123952380Y-100607142D01*
X123952380Y-100702380D01*
X123904761Y-100845238D01*
X123809523Y-100940476D01*
X123714285Y-100988095D01*
X123523809Y-101035714D01*
X123380952Y-101035714D01*
X123190476Y-100988095D01*
X123095238Y-100940476D01*
X123000000Y-100845238D01*
X122952380Y-100702380D01*
X122952380Y-100607142D01*
X123000000Y-100464285D01*
X123047619Y-100416666D01*
X123952380Y-99940476D02*
X123952380Y-99750000D01*
X123904761Y-99654761D01*
X123857142Y-99607142D01*
X123714285Y-99511904D01*
X123523809Y-99464285D01*
X123142857Y-99464285D01*
X123047619Y-99511904D01*
X123000000Y-99559523D01*
X122952380Y-99654761D01*
X122952380Y-99845238D01*
X123000000Y-99940476D01*
X123047619Y-99988095D01*
X123142857Y-100035714D01*
X123380952Y-100035714D01*
X123476190Y-99988095D01*
X123523809Y-99940476D01*
X123571428Y-99845238D01*
X123571428Y-99654761D01*
X123523809Y-99559523D01*
X123476190Y-99511904D01*
X123380952Y-99464285D01*
%TO.C,C10*%
X109857142Y-91677142D02*
X109809523Y-91724761D01*
X109666666Y-91772380D01*
X109571428Y-91772380D01*
X109428571Y-91724761D01*
X109333333Y-91629523D01*
X109285714Y-91534285D01*
X109238095Y-91343809D01*
X109238095Y-91200952D01*
X109285714Y-91010476D01*
X109333333Y-90915238D01*
X109428571Y-90820000D01*
X109571428Y-90772380D01*
X109666666Y-90772380D01*
X109809523Y-90820000D01*
X109857142Y-90867619D01*
X110809523Y-91772380D02*
X110238095Y-91772380D01*
X110523809Y-91772380D02*
X110523809Y-90772380D01*
X110428571Y-90915238D01*
X110333333Y-91010476D01*
X110238095Y-91058095D01*
X111428571Y-90772380D02*
X111523809Y-90772380D01*
X111619047Y-90820000D01*
X111666666Y-90867619D01*
X111714285Y-90962857D01*
X111761904Y-91153333D01*
X111761904Y-91391428D01*
X111714285Y-91581904D01*
X111666666Y-91677142D01*
X111619047Y-91724761D01*
X111523809Y-91772380D01*
X111428571Y-91772380D01*
X111333333Y-91724761D01*
X111285714Y-91677142D01*
X111238095Y-91581904D01*
X111190476Y-91391428D01*
X111190476Y-91153333D01*
X111238095Y-90962857D01*
X111285714Y-90867619D01*
X111333333Y-90820000D01*
X111428571Y-90772380D01*
%TO.C,C11*%
X131607142Y-99357142D02*
X131559523Y-99404761D01*
X131416666Y-99452380D01*
X131321428Y-99452380D01*
X131178571Y-99404761D01*
X131083333Y-99309523D01*
X131035714Y-99214285D01*
X130988095Y-99023809D01*
X130988095Y-98880952D01*
X131035714Y-98690476D01*
X131083333Y-98595238D01*
X131178571Y-98500000D01*
X131321428Y-98452380D01*
X131416666Y-98452380D01*
X131559523Y-98500000D01*
X131607142Y-98547619D01*
X132559523Y-99452380D02*
X131988095Y-99452380D01*
X132273809Y-99452380D02*
X132273809Y-98452380D01*
X132178571Y-98595238D01*
X132083333Y-98690476D01*
X131988095Y-98738095D01*
X133511904Y-99452380D02*
X132940476Y-99452380D01*
X133226190Y-99452380D02*
X133226190Y-98452380D01*
X133130952Y-98595238D01*
X133035714Y-98690476D01*
X132940476Y-98738095D01*
%TO.C,J1*%
X108642380Y-94478333D02*
X109356666Y-94478333D01*
X109499523Y-94525952D01*
X109594761Y-94621190D01*
X109642380Y-94764047D01*
X109642380Y-94859285D01*
X109642380Y-93478333D02*
X109642380Y-94049761D01*
X109642380Y-93764047D02*
X108642380Y-93764047D01*
X108785238Y-93859285D01*
X108880476Y-93954523D01*
X108928095Y-94049761D01*
%TO.C,J2*%
X145071666Y-88432380D02*
X145071666Y-89146666D01*
X145024047Y-89289523D01*
X144928809Y-89384761D01*
X144785952Y-89432380D01*
X144690714Y-89432380D01*
X145500238Y-88527619D02*
X145547857Y-88480000D01*
X145643095Y-88432380D01*
X145881190Y-88432380D01*
X145976428Y-88480000D01*
X146024047Y-88527619D01*
X146071666Y-88622857D01*
X146071666Y-88718095D01*
X146024047Y-88860952D01*
X145452619Y-89432380D01*
X146071666Y-89432380D01*
%TO.C,R1*%
X94333333Y-82272380D02*
X94000000Y-81796190D01*
X93761904Y-82272380D02*
X93761904Y-81272380D01*
X94142857Y-81272380D01*
X94238095Y-81320000D01*
X94285714Y-81367619D01*
X94333333Y-81462857D01*
X94333333Y-81605714D01*
X94285714Y-81700952D01*
X94238095Y-81748571D01*
X94142857Y-81796190D01*
X93761904Y-81796190D01*
X95285714Y-82272380D02*
X94714285Y-82272380D01*
X95000000Y-82272380D02*
X95000000Y-81272380D01*
X94904761Y-81415238D01*
X94809523Y-81510476D01*
X94714285Y-81558095D01*
%TO.C,R2*%
X91583333Y-104022380D02*
X91250000Y-103546190D01*
X91011904Y-104022380D02*
X91011904Y-103022380D01*
X91392857Y-103022380D01*
X91488095Y-103070000D01*
X91535714Y-103117619D01*
X91583333Y-103212857D01*
X91583333Y-103355714D01*
X91535714Y-103450952D01*
X91488095Y-103498571D01*
X91392857Y-103546190D01*
X91011904Y-103546190D01*
X91964285Y-103117619D02*
X92011904Y-103070000D01*
X92107142Y-103022380D01*
X92345238Y-103022380D01*
X92440476Y-103070000D01*
X92488095Y-103117619D01*
X92535714Y-103212857D01*
X92535714Y-103308095D01*
X92488095Y-103450952D01*
X91916666Y-104022380D01*
X92535714Y-104022380D01*
%TO.C,R3*%
X116083333Y-94702380D02*
X115750000Y-94226190D01*
X115511904Y-94702380D02*
X115511904Y-93702380D01*
X115892857Y-93702380D01*
X115988095Y-93750000D01*
X116035714Y-93797619D01*
X116083333Y-93892857D01*
X116083333Y-94035714D01*
X116035714Y-94130952D01*
X115988095Y-94178571D01*
X115892857Y-94226190D01*
X115511904Y-94226190D01*
X116416666Y-93702380D02*
X117035714Y-93702380D01*
X116702380Y-94083333D01*
X116845238Y-94083333D01*
X116940476Y-94130952D01*
X116988095Y-94178571D01*
X117035714Y-94273809D01*
X117035714Y-94511904D01*
X116988095Y-94607142D01*
X116940476Y-94654761D01*
X116845238Y-94702380D01*
X116559523Y-94702380D01*
X116464285Y-94654761D01*
X116416666Y-94607142D01*
%TO.C,R4*%
X116833333Y-87702380D02*
X116500000Y-87226190D01*
X116261904Y-87702380D02*
X116261904Y-86702380D01*
X116642857Y-86702380D01*
X116738095Y-86750000D01*
X116785714Y-86797619D01*
X116833333Y-86892857D01*
X116833333Y-87035714D01*
X116785714Y-87130952D01*
X116738095Y-87178571D01*
X116642857Y-87226190D01*
X116261904Y-87226190D01*
X117690476Y-87035714D02*
X117690476Y-87702380D01*
X117452380Y-86654761D02*
X117214285Y-87369047D01*
X117833333Y-87369047D01*
%TO.C,R5*%
X118833333Y-87702380D02*
X118500000Y-87226190D01*
X118261904Y-87702380D02*
X118261904Y-86702380D01*
X118642857Y-86702380D01*
X118738095Y-86750000D01*
X118785714Y-86797619D01*
X118833333Y-86892857D01*
X118833333Y-87035714D01*
X118785714Y-87130952D01*
X118738095Y-87178571D01*
X118642857Y-87226190D01*
X118261904Y-87226190D01*
X119738095Y-86702380D02*
X119261904Y-86702380D01*
X119214285Y-87178571D01*
X119261904Y-87130952D01*
X119357142Y-87083333D01*
X119595238Y-87083333D01*
X119690476Y-87130952D01*
X119738095Y-87178571D01*
X119785714Y-87273809D01*
X119785714Y-87511904D01*
X119738095Y-87607142D01*
X119690476Y-87654761D01*
X119595238Y-87702380D01*
X119357142Y-87702380D01*
X119261904Y-87654761D01*
X119214285Y-87607142D01*
%TO.C,R6*%
X112583333Y-87702380D02*
X112250000Y-87226190D01*
X112011904Y-87702380D02*
X112011904Y-86702380D01*
X112392857Y-86702380D01*
X112488095Y-86750000D01*
X112535714Y-86797619D01*
X112583333Y-86892857D01*
X112583333Y-87035714D01*
X112535714Y-87130952D01*
X112488095Y-87178571D01*
X112392857Y-87226190D01*
X112011904Y-87226190D01*
X113440476Y-86702380D02*
X113250000Y-86702380D01*
X113154761Y-86750000D01*
X113107142Y-86797619D01*
X113011904Y-86940476D01*
X112964285Y-87130952D01*
X112964285Y-87511904D01*
X113011904Y-87607142D01*
X113059523Y-87654761D01*
X113154761Y-87702380D01*
X113345238Y-87702380D01*
X113440476Y-87654761D01*
X113488095Y-87607142D01*
X113535714Y-87511904D01*
X113535714Y-87273809D01*
X113488095Y-87178571D01*
X113440476Y-87130952D01*
X113345238Y-87083333D01*
X113154761Y-87083333D01*
X113059523Y-87130952D01*
X113011904Y-87178571D01*
X112964285Y-87273809D01*
%TO.C,R7*%
X114583333Y-87702380D02*
X114250000Y-87226190D01*
X114011904Y-87702380D02*
X114011904Y-86702380D01*
X114392857Y-86702380D01*
X114488095Y-86750000D01*
X114535714Y-86797619D01*
X114583333Y-86892857D01*
X114583333Y-87035714D01*
X114535714Y-87130952D01*
X114488095Y-87178571D01*
X114392857Y-87226190D01*
X114011904Y-87226190D01*
X114916666Y-86702380D02*
X115583333Y-86702380D01*
X115154761Y-87702380D01*
%TO.C,R8*%
X119833333Y-95772380D02*
X119500000Y-95296190D01*
X119261904Y-95772380D02*
X119261904Y-94772380D01*
X119642857Y-94772380D01*
X119738095Y-94820000D01*
X119785714Y-94867619D01*
X119833333Y-94962857D01*
X119833333Y-95105714D01*
X119785714Y-95200952D01*
X119738095Y-95248571D01*
X119642857Y-95296190D01*
X119261904Y-95296190D01*
X120404761Y-95200952D02*
X120309523Y-95153333D01*
X120261904Y-95105714D01*
X120214285Y-95010476D01*
X120214285Y-94962857D01*
X120261904Y-94867619D01*
X120309523Y-94820000D01*
X120404761Y-94772380D01*
X120595238Y-94772380D01*
X120690476Y-94820000D01*
X120738095Y-94867619D01*
X120785714Y-94962857D01*
X120785714Y-95010476D01*
X120738095Y-95105714D01*
X120690476Y-95153333D01*
X120595238Y-95200952D01*
X120404761Y-95200952D01*
X120309523Y-95248571D01*
X120261904Y-95296190D01*
X120214285Y-95391428D01*
X120214285Y-95581904D01*
X120261904Y-95677142D01*
X120309523Y-95724761D01*
X120404761Y-95772380D01*
X120595238Y-95772380D01*
X120690476Y-95724761D01*
X120738095Y-95677142D01*
X120785714Y-95581904D01*
X120785714Y-95391428D01*
X120738095Y-95296190D01*
X120690476Y-95248571D01*
X120595238Y-95200952D01*
%TO.C,U1*%
X129202380Y-95061904D02*
X130011904Y-95061904D01*
X130107142Y-95014285D01*
X130154761Y-94966666D01*
X130202380Y-94871428D01*
X130202380Y-94680952D01*
X130154761Y-94585714D01*
X130107142Y-94538095D01*
X130011904Y-94490476D01*
X129202380Y-94490476D01*
X130202380Y-93490476D02*
X130202380Y-94061904D01*
X130202380Y-93776190D02*
X129202380Y-93776190D01*
X129345238Y-93871428D01*
X129440476Y-93966666D01*
X129488095Y-94061904D01*
%TO.C,Y1*%
X123976190Y-102926190D02*
X124452380Y-102926190D01*
X123452380Y-103259523D02*
X123976190Y-102926190D01*
X123452380Y-102592857D01*
X124452380Y-101735714D02*
X124452380Y-102307142D01*
X124452380Y-102021428D02*
X123452380Y-102021428D01*
X123595238Y-102116666D01*
X123690476Y-102211904D01*
X123738095Y-102307142D01*
%TD*%
M02*
