%TF.GenerationSoftware,KiCad,Pcbnew,(5.1.6)-1*%
%TF.CreationDate,2020-09-26T17:15:15+05:30*%
%TF.ProjectId,ENC28J60_Dev_Board,454e4332-384a-4363-905f-4465765f426f,rev?*%
%TF.SameCoordinates,Original*%
%TF.FileFunction,Soldermask,Top*%
%TF.FilePolarity,Negative*%
%FSLAX46Y46*%
G04 Gerber Fmt 4.6, Leading zero omitted, Abs format (unit mm)*
G04 Created by KiCad (PCBNEW (5.1.6)-1) date 2020-09-26 17:15:15*
%MOMM*%
%LPD*%
G01*
G04 APERTURE LIST*
%ADD10C,6.500000*%
%ADD11C,0.900000*%
%ADD12R,2.000000X2.000000*%
%ADD13C,2.000000*%
%ADD14C,1.990000*%
%ADD15C,2.700000*%
%ADD16C,3.350000*%
%ADD17R,1.800000X1.800000*%
%ADD18O,1.800000X1.800000*%
%ADD19R,4.350000X4.350000*%
%ADD20R,1.300000X1.500000*%
G04 APERTURE END LIST*
%TO.C,C1*%
G36*
G01*
X122475000Y-99281250D02*
X122475000Y-98718750D01*
G75*
G02*
X122718750Y-98475000I243750J0D01*
G01*
X123206250Y-98475000D01*
G75*
G02*
X123450000Y-98718750I0J-243750D01*
G01*
X123450000Y-99281250D01*
G75*
G02*
X123206250Y-99525000I-243750J0D01*
G01*
X122718750Y-99525000D01*
G75*
G02*
X122475000Y-99281250I0J243750D01*
G01*
G37*
G36*
G01*
X124050000Y-99281250D02*
X124050000Y-98718750D01*
G75*
G02*
X124293750Y-98475000I243750J0D01*
G01*
X124781250Y-98475000D01*
G75*
G02*
X125025000Y-98718750I0J-243750D01*
G01*
X125025000Y-99281250D01*
G75*
G02*
X124781250Y-99525000I-243750J0D01*
G01*
X124293750Y-99525000D01*
G75*
G02*
X124050000Y-99281250I0J243750D01*
G01*
G37*
%TD*%
%TO.C,C2*%
G36*
G01*
X110762500Y-97781250D02*
X110762500Y-97218750D01*
G75*
G02*
X111006250Y-96975000I243750J0D01*
G01*
X111493750Y-96975000D01*
G75*
G02*
X111737500Y-97218750I0J-243750D01*
G01*
X111737500Y-97781250D01*
G75*
G02*
X111493750Y-98025000I-243750J0D01*
G01*
X111006250Y-98025000D01*
G75*
G02*
X110762500Y-97781250I0J243750D01*
G01*
G37*
G36*
G01*
X109187500Y-97781250D02*
X109187500Y-97218750D01*
G75*
G02*
X109431250Y-96975000I243750J0D01*
G01*
X109918750Y-96975000D01*
G75*
G02*
X110162500Y-97218750I0J-243750D01*
G01*
X110162500Y-97781250D01*
G75*
G02*
X109918750Y-98025000I-243750J0D01*
G01*
X109431250Y-98025000D01*
G75*
G02*
X109187500Y-97781250I0J243750D01*
G01*
G37*
%TD*%
%TO.C,C3*%
G36*
G01*
X130725000Y-94531250D02*
X130725000Y-93968750D01*
G75*
G02*
X130968750Y-93725000I243750J0D01*
G01*
X131456250Y-93725000D01*
G75*
G02*
X131700000Y-93968750I0J-243750D01*
G01*
X131700000Y-94531250D01*
G75*
G02*
X131456250Y-94775000I-243750J0D01*
G01*
X130968750Y-94775000D01*
G75*
G02*
X130725000Y-94531250I0J243750D01*
G01*
G37*
G36*
G01*
X132300000Y-94531250D02*
X132300000Y-93968750D01*
G75*
G02*
X132543750Y-93725000I243750J0D01*
G01*
X133031250Y-93725000D01*
G75*
G02*
X133275000Y-93968750I0J-243750D01*
G01*
X133275000Y-94531250D01*
G75*
G02*
X133031250Y-94775000I-243750J0D01*
G01*
X132543750Y-94775000D01*
G75*
G02*
X132300000Y-94531250I0J243750D01*
G01*
G37*
%TD*%
%TO.C,C4*%
G36*
G01*
X120468750Y-86800000D02*
X121031250Y-86800000D01*
G75*
G02*
X121275000Y-87043750I0J-243750D01*
G01*
X121275000Y-87531250D01*
G75*
G02*
X121031250Y-87775000I-243750J0D01*
G01*
X120468750Y-87775000D01*
G75*
G02*
X120225000Y-87531250I0J243750D01*
G01*
X120225000Y-87043750D01*
G75*
G02*
X120468750Y-86800000I243750J0D01*
G01*
G37*
G36*
G01*
X120468750Y-85225000D02*
X121031250Y-85225000D01*
G75*
G02*
X121275000Y-85468750I0J-243750D01*
G01*
X121275000Y-85956250D01*
G75*
G02*
X121031250Y-86200000I-243750J0D01*
G01*
X120468750Y-86200000D01*
G75*
G02*
X120225000Y-85956250I0J243750D01*
G01*
X120225000Y-85468750D01*
G75*
G02*
X120468750Y-85225000I243750J0D01*
G01*
G37*
%TD*%
%TO.C,C5*%
G36*
G01*
X110781250Y-87775000D02*
X110218750Y-87775000D01*
G75*
G02*
X109975000Y-87531250I0J243750D01*
G01*
X109975000Y-87043750D01*
G75*
G02*
X110218750Y-86800000I243750J0D01*
G01*
X110781250Y-86800000D01*
G75*
G02*
X111025000Y-87043750I0J-243750D01*
G01*
X111025000Y-87531250D01*
G75*
G02*
X110781250Y-87775000I-243750J0D01*
G01*
G37*
G36*
G01*
X110781250Y-86200000D02*
X110218750Y-86200000D01*
G75*
G02*
X109975000Y-85956250I0J243750D01*
G01*
X109975000Y-85468750D01*
G75*
G02*
X110218750Y-85225000I243750J0D01*
G01*
X110781250Y-85225000D01*
G75*
G02*
X111025000Y-85468750I0J-243750D01*
G01*
X111025000Y-85956250D01*
G75*
G02*
X110781250Y-86200000I-243750J0D01*
G01*
G37*
%TD*%
%TO.C,C6*%
G36*
G01*
X138225000Y-88281250D02*
X138225000Y-87718750D01*
G75*
G02*
X138468750Y-87475000I243750J0D01*
G01*
X138956250Y-87475000D01*
G75*
G02*
X139200000Y-87718750I0J-243750D01*
G01*
X139200000Y-88281250D01*
G75*
G02*
X138956250Y-88525000I-243750J0D01*
G01*
X138468750Y-88525000D01*
G75*
G02*
X138225000Y-88281250I0J243750D01*
G01*
G37*
G36*
G01*
X139800000Y-88281250D02*
X139800000Y-87718750D01*
G75*
G02*
X140043750Y-87475000I243750J0D01*
G01*
X140531250Y-87475000D01*
G75*
G02*
X140775000Y-87718750I0J-243750D01*
G01*
X140775000Y-88281250D01*
G75*
G02*
X140531250Y-88525000I-243750J0D01*
G01*
X140043750Y-88525000D01*
G75*
G02*
X139800000Y-88281250I0J243750D01*
G01*
G37*
%TD*%
%TO.C,C7*%
G36*
G01*
X139800000Y-86281250D02*
X139800000Y-85718750D01*
G75*
G02*
X140043750Y-85475000I243750J0D01*
G01*
X140531250Y-85475000D01*
G75*
G02*
X140775000Y-85718750I0J-243750D01*
G01*
X140775000Y-86281250D01*
G75*
G02*
X140531250Y-86525000I-243750J0D01*
G01*
X140043750Y-86525000D01*
G75*
G02*
X139800000Y-86281250I0J243750D01*
G01*
G37*
G36*
G01*
X138225000Y-86281250D02*
X138225000Y-85718750D01*
G75*
G02*
X138468750Y-85475000I243750J0D01*
G01*
X138956250Y-85475000D01*
G75*
G02*
X139200000Y-85718750I0J-243750D01*
G01*
X139200000Y-86281250D01*
G75*
G02*
X138956250Y-86525000I-243750J0D01*
G01*
X138468750Y-86525000D01*
G75*
G02*
X138225000Y-86281250I0J243750D01*
G01*
G37*
%TD*%
%TO.C,C8*%
G36*
G01*
X129531250Y-104040001D02*
X128968750Y-104040001D01*
G75*
G02*
X128725000Y-103796251I0J243750D01*
G01*
X128725000Y-103308751D01*
G75*
G02*
X128968750Y-103065001I243750J0D01*
G01*
X129531250Y-103065001D01*
G75*
G02*
X129775000Y-103308751I0J-243750D01*
G01*
X129775000Y-103796251D01*
G75*
G02*
X129531250Y-104040001I-243750J0D01*
G01*
G37*
G36*
G01*
X129531250Y-102465001D02*
X128968750Y-102465001D01*
G75*
G02*
X128725000Y-102221251I0J243750D01*
G01*
X128725000Y-101733751D01*
G75*
G02*
X128968750Y-101490001I243750J0D01*
G01*
X129531250Y-101490001D01*
G75*
G02*
X129775000Y-101733751I0J-243750D01*
G01*
X129775000Y-102221251D01*
G75*
G02*
X129531250Y-102465001I-243750J0D01*
G01*
G37*
%TD*%
%TO.C,C9*%
G36*
G01*
X123781250Y-102450000D02*
X123218750Y-102450000D01*
G75*
G02*
X122975000Y-102206250I0J243750D01*
G01*
X122975000Y-101718750D01*
G75*
G02*
X123218750Y-101475000I243750J0D01*
G01*
X123781250Y-101475000D01*
G75*
G02*
X124025000Y-101718750I0J-243750D01*
G01*
X124025000Y-102206250D01*
G75*
G02*
X123781250Y-102450000I-243750J0D01*
G01*
G37*
G36*
G01*
X123781250Y-104025000D02*
X123218750Y-104025000D01*
G75*
G02*
X122975000Y-103781250I0J243750D01*
G01*
X122975000Y-103293750D01*
G75*
G02*
X123218750Y-103050000I243750J0D01*
G01*
X123781250Y-103050000D01*
G75*
G02*
X124025000Y-103293750I0J-243750D01*
G01*
X124025000Y-103781250D01*
G75*
G02*
X123781250Y-104025000I-243750J0D01*
G01*
G37*
%TD*%
%TO.C,C10*%
G36*
G01*
X109225000Y-93031250D02*
X109225000Y-92468750D01*
G75*
G02*
X109468750Y-92225000I243750J0D01*
G01*
X109956250Y-92225000D01*
G75*
G02*
X110200000Y-92468750I0J-243750D01*
G01*
X110200000Y-93031250D01*
G75*
G02*
X109956250Y-93275000I-243750J0D01*
G01*
X109468750Y-93275000D01*
G75*
G02*
X109225000Y-93031250I0J243750D01*
G01*
G37*
G36*
G01*
X110800000Y-93031250D02*
X110800000Y-92468750D01*
G75*
G02*
X111043750Y-92225000I243750J0D01*
G01*
X111531250Y-92225000D01*
G75*
G02*
X111775000Y-92468750I0J-243750D01*
G01*
X111775000Y-93031250D01*
G75*
G02*
X111531250Y-93275000I-243750J0D01*
G01*
X111043750Y-93275000D01*
G75*
G02*
X110800000Y-93031250I0J243750D01*
G01*
G37*
%TD*%
%TO.C,C11*%
G36*
G01*
X129512500Y-99281250D02*
X129512500Y-98718750D01*
G75*
G02*
X129756250Y-98475000I243750J0D01*
G01*
X130243750Y-98475000D01*
G75*
G02*
X130487500Y-98718750I0J-243750D01*
G01*
X130487500Y-99281250D01*
G75*
G02*
X130243750Y-99525000I-243750J0D01*
G01*
X129756250Y-99525000D01*
G75*
G02*
X129512500Y-99281250I0J243750D01*
G01*
G37*
G36*
G01*
X127937500Y-99281250D02*
X127937500Y-98718750D01*
G75*
G02*
X128181250Y-98475000I243750J0D01*
G01*
X128668750Y-98475000D01*
G75*
G02*
X128912500Y-98718750I0J-243750D01*
G01*
X128912500Y-99281250D01*
G75*
G02*
X128668750Y-99525000I-243750J0D01*
G01*
X128181250Y-99525000D01*
G75*
G02*
X127937500Y-99281250I0J243750D01*
G01*
G37*
%TD*%
D10*
%TO.C,H1*%
X87000000Y-109000000D03*
D11*
X84600000Y-109000000D03*
X85302944Y-107302944D03*
X87000000Y-106600000D03*
X88697056Y-107302944D03*
X89400000Y-109000000D03*
X88697056Y-110697056D03*
X87000000Y-111400000D03*
X85302944Y-110697056D03*
%TD*%
%TO.C,H2*%
X143052944Y-110947056D03*
X144750000Y-111650000D03*
X146447056Y-110947056D03*
X147150000Y-109250000D03*
X146447056Y-107552944D03*
X144750000Y-106850000D03*
X143052944Y-107552944D03*
X142350000Y-109250000D03*
D10*
X144750000Y-109250000D03*
%TD*%
%TO.C,H3*%
X144750000Y-80000000D03*
D11*
X147150000Y-80000000D03*
X146447056Y-81697056D03*
X144750000Y-82400000D03*
X143052944Y-81697056D03*
X142350000Y-80000000D03*
X143052944Y-78302944D03*
X144750000Y-77600000D03*
X146447056Y-78302944D03*
%TD*%
%TO.C,H4*%
X88697056Y-78102944D03*
X87000000Y-77400000D03*
X85302944Y-78102944D03*
X84600000Y-79800000D03*
X85302944Y-81497056D03*
X87000000Y-82200000D03*
X88697056Y-81497056D03*
X89400000Y-79800000D03*
D10*
X87000000Y-79800000D03*
%TD*%
D12*
%TO.C,J1*%
X103700000Y-89700000D03*
D13*
X106240000Y-90970000D03*
X103700000Y-92240000D03*
X106240000Y-93510000D03*
X103700000Y-94780000D03*
X106240000Y-96050000D03*
X103700000Y-97320000D03*
X106240000Y-98590000D03*
D14*
X93980000Y-100470000D03*
X92460000Y-97930000D03*
X93980000Y-90360000D03*
X92460000Y-87820000D03*
D15*
X100410000Y-86370000D03*
X100410000Y-101920000D03*
D16*
X97360000Y-88430000D03*
X97360000Y-99860000D03*
%TD*%
D17*
%TO.C,J2*%
X139750000Y-91250000D03*
D18*
X142290000Y-91250000D03*
X139750000Y-93790000D03*
X142290000Y-93790000D03*
X139750000Y-96330000D03*
X142290000Y-96330000D03*
X139750000Y-98870000D03*
X142290000Y-98870000D03*
%TD*%
%TO.C,R1*%
G36*
G01*
X93225000Y-83531250D02*
X93225000Y-82968750D01*
G75*
G02*
X93468750Y-82725000I243750J0D01*
G01*
X93956250Y-82725000D01*
G75*
G02*
X94200000Y-82968750I0J-243750D01*
G01*
X94200000Y-83531250D01*
G75*
G02*
X93956250Y-83775000I-243750J0D01*
G01*
X93468750Y-83775000D01*
G75*
G02*
X93225000Y-83531250I0J243750D01*
G01*
G37*
G36*
G01*
X94800000Y-83531250D02*
X94800000Y-82968750D01*
G75*
G02*
X95043750Y-82725000I243750J0D01*
G01*
X95531250Y-82725000D01*
G75*
G02*
X95775000Y-82968750I0J-243750D01*
G01*
X95775000Y-83531250D01*
G75*
G02*
X95531250Y-83775000I-243750J0D01*
G01*
X95043750Y-83775000D01*
G75*
G02*
X94800000Y-83531250I0J243750D01*
G01*
G37*
%TD*%
%TO.C,R2*%
G36*
G01*
X90475000Y-105281250D02*
X90475000Y-104718750D01*
G75*
G02*
X90718750Y-104475000I243750J0D01*
G01*
X91206250Y-104475000D01*
G75*
G02*
X91450000Y-104718750I0J-243750D01*
G01*
X91450000Y-105281250D01*
G75*
G02*
X91206250Y-105525000I-243750J0D01*
G01*
X90718750Y-105525000D01*
G75*
G02*
X90475000Y-105281250I0J243750D01*
G01*
G37*
G36*
G01*
X92050000Y-105281250D02*
X92050000Y-104718750D01*
G75*
G02*
X92293750Y-104475000I243750J0D01*
G01*
X92781250Y-104475000D01*
G75*
G02*
X93025000Y-104718750I0J-243750D01*
G01*
X93025000Y-105281250D01*
G75*
G02*
X92781250Y-105525000I-243750J0D01*
G01*
X92293750Y-105525000D01*
G75*
G02*
X92050000Y-105281250I0J243750D01*
G01*
G37*
%TD*%
%TO.C,R3*%
G36*
G01*
X119300000Y-94281250D02*
X119300000Y-93718750D01*
G75*
G02*
X119543750Y-93475000I243750J0D01*
G01*
X120031250Y-93475000D01*
G75*
G02*
X120275000Y-93718750I0J-243750D01*
G01*
X120275000Y-94281250D01*
G75*
G02*
X120031250Y-94525000I-243750J0D01*
G01*
X119543750Y-94525000D01*
G75*
G02*
X119300000Y-94281250I0J243750D01*
G01*
G37*
G36*
G01*
X117725000Y-94281250D02*
X117725000Y-93718750D01*
G75*
G02*
X117968750Y-93475000I243750J0D01*
G01*
X118456250Y-93475000D01*
G75*
G02*
X118700000Y-93718750I0J-243750D01*
G01*
X118700000Y-94281250D01*
G75*
G02*
X118456250Y-94525000I-243750J0D01*
G01*
X117968750Y-94525000D01*
G75*
G02*
X117725000Y-94281250I0J243750D01*
G01*
G37*
%TD*%
%TO.C,R4*%
G36*
G01*
X117281250Y-89200000D02*
X116718750Y-89200000D01*
G75*
G02*
X116475000Y-88956250I0J243750D01*
G01*
X116475000Y-88468750D01*
G75*
G02*
X116718750Y-88225000I243750J0D01*
G01*
X117281250Y-88225000D01*
G75*
G02*
X117525000Y-88468750I0J-243750D01*
G01*
X117525000Y-88956250D01*
G75*
G02*
X117281250Y-89200000I-243750J0D01*
G01*
G37*
G36*
G01*
X117281250Y-90775000D02*
X116718750Y-90775000D01*
G75*
G02*
X116475000Y-90531250I0J243750D01*
G01*
X116475000Y-90043750D01*
G75*
G02*
X116718750Y-89800000I243750J0D01*
G01*
X117281250Y-89800000D01*
G75*
G02*
X117525000Y-90043750I0J-243750D01*
G01*
X117525000Y-90531250D01*
G75*
G02*
X117281250Y-90775000I-243750J0D01*
G01*
G37*
%TD*%
%TO.C,R5*%
G36*
G01*
X119281250Y-89200000D02*
X118718750Y-89200000D01*
G75*
G02*
X118475000Y-88956250I0J243750D01*
G01*
X118475000Y-88468750D01*
G75*
G02*
X118718750Y-88225000I243750J0D01*
G01*
X119281250Y-88225000D01*
G75*
G02*
X119525000Y-88468750I0J-243750D01*
G01*
X119525000Y-88956250D01*
G75*
G02*
X119281250Y-89200000I-243750J0D01*
G01*
G37*
G36*
G01*
X119281250Y-90775000D02*
X118718750Y-90775000D01*
G75*
G02*
X118475000Y-90531250I0J243750D01*
G01*
X118475000Y-90043750D01*
G75*
G02*
X118718750Y-89800000I243750J0D01*
G01*
X119281250Y-89800000D01*
G75*
G02*
X119525000Y-90043750I0J-243750D01*
G01*
X119525000Y-90531250D01*
G75*
G02*
X119281250Y-90775000I-243750J0D01*
G01*
G37*
%TD*%
%TO.C,R6*%
G36*
G01*
X113031250Y-90775000D02*
X112468750Y-90775000D01*
G75*
G02*
X112225000Y-90531250I0J243750D01*
G01*
X112225000Y-90043750D01*
G75*
G02*
X112468750Y-89800000I243750J0D01*
G01*
X113031250Y-89800000D01*
G75*
G02*
X113275000Y-90043750I0J-243750D01*
G01*
X113275000Y-90531250D01*
G75*
G02*
X113031250Y-90775000I-243750J0D01*
G01*
G37*
G36*
G01*
X113031250Y-89200000D02*
X112468750Y-89200000D01*
G75*
G02*
X112225000Y-88956250I0J243750D01*
G01*
X112225000Y-88468750D01*
G75*
G02*
X112468750Y-88225000I243750J0D01*
G01*
X113031250Y-88225000D01*
G75*
G02*
X113275000Y-88468750I0J-243750D01*
G01*
X113275000Y-88956250D01*
G75*
G02*
X113031250Y-89200000I-243750J0D01*
G01*
G37*
%TD*%
%TO.C,R7*%
G36*
G01*
X115031250Y-89200000D02*
X114468750Y-89200000D01*
G75*
G02*
X114225000Y-88956250I0J243750D01*
G01*
X114225000Y-88468750D01*
G75*
G02*
X114468750Y-88225000I243750J0D01*
G01*
X115031250Y-88225000D01*
G75*
G02*
X115275000Y-88468750I0J-243750D01*
G01*
X115275000Y-88956250D01*
G75*
G02*
X115031250Y-89200000I-243750J0D01*
G01*
G37*
G36*
G01*
X115031250Y-90775000D02*
X114468750Y-90775000D01*
G75*
G02*
X114225000Y-90531250I0J243750D01*
G01*
X114225000Y-90043750D01*
G75*
G02*
X114468750Y-89800000I243750J0D01*
G01*
X115031250Y-89800000D01*
G75*
G02*
X115275000Y-90043750I0J-243750D01*
G01*
X115275000Y-90531250D01*
G75*
G02*
X115031250Y-90775000I-243750J0D01*
G01*
G37*
%TD*%
%TO.C,R8*%
G36*
G01*
X118725000Y-97031250D02*
X118725000Y-96468750D01*
G75*
G02*
X118968750Y-96225000I243750J0D01*
G01*
X119456250Y-96225000D01*
G75*
G02*
X119700000Y-96468750I0J-243750D01*
G01*
X119700000Y-97031250D01*
G75*
G02*
X119456250Y-97275000I-243750J0D01*
G01*
X118968750Y-97275000D01*
G75*
G02*
X118725000Y-97031250I0J243750D01*
G01*
G37*
G36*
G01*
X120300000Y-97031250D02*
X120300000Y-96468750D01*
G75*
G02*
X120543750Y-96225000I243750J0D01*
G01*
X121031250Y-96225000D01*
G75*
G02*
X121275000Y-96468750I0J-243750D01*
G01*
X121275000Y-97031250D01*
G75*
G02*
X121031250Y-97275000I-243750J0D01*
G01*
X120543750Y-97275000D01*
G75*
G02*
X120300000Y-97031250I0J243750D01*
G01*
G37*
%TD*%
%TO.C,U1*%
G36*
G01*
X127300000Y-90900000D02*
X127500000Y-90900000D01*
G75*
G02*
X127600000Y-91000000I0J-100000D01*
G01*
X127600000Y-91925000D01*
G75*
G02*
X127500000Y-92025000I-100000J0D01*
G01*
X127300000Y-92025000D01*
G75*
G02*
X127200000Y-91925000I0J100000D01*
G01*
X127200000Y-91000000D01*
G75*
G02*
X127300000Y-90900000I100000J0D01*
G01*
G37*
G36*
G01*
X126650000Y-90900000D02*
X126850000Y-90900000D01*
G75*
G02*
X126950000Y-91000000I0J-100000D01*
G01*
X126950000Y-91925000D01*
G75*
G02*
X126850000Y-92025000I-100000J0D01*
G01*
X126650000Y-92025000D01*
G75*
G02*
X126550000Y-91925000I0J100000D01*
G01*
X126550000Y-91000000D01*
G75*
G02*
X126650000Y-90900000I100000J0D01*
G01*
G37*
G36*
G01*
X126000000Y-90900000D02*
X126200000Y-90900000D01*
G75*
G02*
X126300000Y-91000000I0J-100000D01*
G01*
X126300000Y-91925000D01*
G75*
G02*
X126200000Y-92025000I-100000J0D01*
G01*
X126000000Y-92025000D01*
G75*
G02*
X125900000Y-91925000I0J100000D01*
G01*
X125900000Y-91000000D01*
G75*
G02*
X126000000Y-90900000I100000J0D01*
G01*
G37*
G36*
G01*
X125350000Y-90900000D02*
X125550000Y-90900000D01*
G75*
G02*
X125650000Y-91000000I0J-100000D01*
G01*
X125650000Y-91925000D01*
G75*
G02*
X125550000Y-92025000I-100000J0D01*
G01*
X125350000Y-92025000D01*
G75*
G02*
X125250000Y-91925000I0J100000D01*
G01*
X125250000Y-91000000D01*
G75*
G02*
X125350000Y-90900000I100000J0D01*
G01*
G37*
G36*
G01*
X124700000Y-90900000D02*
X124900000Y-90900000D01*
G75*
G02*
X125000000Y-91000000I0J-100000D01*
G01*
X125000000Y-91925000D01*
G75*
G02*
X124900000Y-92025000I-100000J0D01*
G01*
X124700000Y-92025000D01*
G75*
G02*
X124600000Y-91925000I0J100000D01*
G01*
X124600000Y-91000000D01*
G75*
G02*
X124700000Y-90900000I100000J0D01*
G01*
G37*
G36*
G01*
X124050000Y-90900000D02*
X124250000Y-90900000D01*
G75*
G02*
X124350000Y-91000000I0J-100000D01*
G01*
X124350000Y-91925000D01*
G75*
G02*
X124250000Y-92025000I-100000J0D01*
G01*
X124050000Y-92025000D01*
G75*
G02*
X123950000Y-91925000I0J100000D01*
G01*
X123950000Y-91000000D01*
G75*
G02*
X124050000Y-90900000I100000J0D01*
G01*
G37*
G36*
G01*
X123400000Y-90900000D02*
X123600000Y-90900000D01*
G75*
G02*
X123700000Y-91000000I0J-100000D01*
G01*
X123700000Y-91925000D01*
G75*
G02*
X123600000Y-92025000I-100000J0D01*
G01*
X123400000Y-92025000D01*
G75*
G02*
X123300000Y-91925000I0J100000D01*
G01*
X123300000Y-91000000D01*
G75*
G02*
X123400000Y-90900000I100000J0D01*
G01*
G37*
G36*
G01*
X122150000Y-92150000D02*
X123075000Y-92150000D01*
G75*
G02*
X123175000Y-92250000I0J-100000D01*
G01*
X123175000Y-92450000D01*
G75*
G02*
X123075000Y-92550000I-100000J0D01*
G01*
X122150000Y-92550000D01*
G75*
G02*
X122050000Y-92450000I0J100000D01*
G01*
X122050000Y-92250000D01*
G75*
G02*
X122150000Y-92150000I100000J0D01*
G01*
G37*
G36*
G01*
X122150000Y-92800000D02*
X123075000Y-92800000D01*
G75*
G02*
X123175000Y-92900000I0J-100000D01*
G01*
X123175000Y-93100000D01*
G75*
G02*
X123075000Y-93200000I-100000J0D01*
G01*
X122150000Y-93200000D01*
G75*
G02*
X122050000Y-93100000I0J100000D01*
G01*
X122050000Y-92900000D01*
G75*
G02*
X122150000Y-92800000I100000J0D01*
G01*
G37*
G36*
G01*
X122150000Y-93450000D02*
X123075000Y-93450000D01*
G75*
G02*
X123175000Y-93550000I0J-100000D01*
G01*
X123175000Y-93750000D01*
G75*
G02*
X123075000Y-93850000I-100000J0D01*
G01*
X122150000Y-93850000D01*
G75*
G02*
X122050000Y-93750000I0J100000D01*
G01*
X122050000Y-93550000D01*
G75*
G02*
X122150000Y-93450000I100000J0D01*
G01*
G37*
G36*
G01*
X122150000Y-94100000D02*
X123075000Y-94100000D01*
G75*
G02*
X123175000Y-94200000I0J-100000D01*
G01*
X123175000Y-94400000D01*
G75*
G02*
X123075000Y-94500000I-100000J0D01*
G01*
X122150000Y-94500000D01*
G75*
G02*
X122050000Y-94400000I0J100000D01*
G01*
X122050000Y-94200000D01*
G75*
G02*
X122150000Y-94100000I100000J0D01*
G01*
G37*
G36*
G01*
X122150000Y-94750000D02*
X123075000Y-94750000D01*
G75*
G02*
X123175000Y-94850000I0J-100000D01*
G01*
X123175000Y-95050000D01*
G75*
G02*
X123075000Y-95150000I-100000J0D01*
G01*
X122150000Y-95150000D01*
G75*
G02*
X122050000Y-95050000I0J100000D01*
G01*
X122050000Y-94850000D01*
G75*
G02*
X122150000Y-94750000I100000J0D01*
G01*
G37*
G36*
G01*
X122150000Y-95400000D02*
X123075000Y-95400000D01*
G75*
G02*
X123175000Y-95500000I0J-100000D01*
G01*
X123175000Y-95700000D01*
G75*
G02*
X123075000Y-95800000I-100000J0D01*
G01*
X122150000Y-95800000D01*
G75*
G02*
X122050000Y-95700000I0J100000D01*
G01*
X122050000Y-95500000D01*
G75*
G02*
X122150000Y-95400000I100000J0D01*
G01*
G37*
G36*
G01*
X122150000Y-96050000D02*
X123075000Y-96050000D01*
G75*
G02*
X123175000Y-96150000I0J-100000D01*
G01*
X123175000Y-96350000D01*
G75*
G02*
X123075000Y-96450000I-100000J0D01*
G01*
X122150000Y-96450000D01*
G75*
G02*
X122050000Y-96350000I0J100000D01*
G01*
X122050000Y-96150000D01*
G75*
G02*
X122150000Y-96050000I100000J0D01*
G01*
G37*
G36*
G01*
X123400000Y-96575000D02*
X123600000Y-96575000D01*
G75*
G02*
X123700000Y-96675000I0J-100000D01*
G01*
X123700000Y-97600000D01*
G75*
G02*
X123600000Y-97700000I-100000J0D01*
G01*
X123400000Y-97700000D01*
G75*
G02*
X123300000Y-97600000I0J100000D01*
G01*
X123300000Y-96675000D01*
G75*
G02*
X123400000Y-96575000I100000J0D01*
G01*
G37*
G36*
G01*
X124050000Y-96575000D02*
X124250000Y-96575000D01*
G75*
G02*
X124350000Y-96675000I0J-100000D01*
G01*
X124350000Y-97600000D01*
G75*
G02*
X124250000Y-97700000I-100000J0D01*
G01*
X124050000Y-97700000D01*
G75*
G02*
X123950000Y-97600000I0J100000D01*
G01*
X123950000Y-96675000D01*
G75*
G02*
X124050000Y-96575000I100000J0D01*
G01*
G37*
G36*
G01*
X124700000Y-96575000D02*
X124900000Y-96575000D01*
G75*
G02*
X125000000Y-96675000I0J-100000D01*
G01*
X125000000Y-97600000D01*
G75*
G02*
X124900000Y-97700000I-100000J0D01*
G01*
X124700000Y-97700000D01*
G75*
G02*
X124600000Y-97600000I0J100000D01*
G01*
X124600000Y-96675000D01*
G75*
G02*
X124700000Y-96575000I100000J0D01*
G01*
G37*
G36*
G01*
X125350000Y-96575000D02*
X125550000Y-96575000D01*
G75*
G02*
X125650000Y-96675000I0J-100000D01*
G01*
X125650000Y-97600000D01*
G75*
G02*
X125550000Y-97700000I-100000J0D01*
G01*
X125350000Y-97700000D01*
G75*
G02*
X125250000Y-97600000I0J100000D01*
G01*
X125250000Y-96675000D01*
G75*
G02*
X125350000Y-96575000I100000J0D01*
G01*
G37*
G36*
G01*
X126000000Y-96575000D02*
X126200000Y-96575000D01*
G75*
G02*
X126300000Y-96675000I0J-100000D01*
G01*
X126300000Y-97600000D01*
G75*
G02*
X126200000Y-97700000I-100000J0D01*
G01*
X126000000Y-97700000D01*
G75*
G02*
X125900000Y-97600000I0J100000D01*
G01*
X125900000Y-96675000D01*
G75*
G02*
X126000000Y-96575000I100000J0D01*
G01*
G37*
G36*
G01*
X126650000Y-96575000D02*
X126850000Y-96575000D01*
G75*
G02*
X126950000Y-96675000I0J-100000D01*
G01*
X126950000Y-97600000D01*
G75*
G02*
X126850000Y-97700000I-100000J0D01*
G01*
X126650000Y-97700000D01*
G75*
G02*
X126550000Y-97600000I0J100000D01*
G01*
X126550000Y-96675000D01*
G75*
G02*
X126650000Y-96575000I100000J0D01*
G01*
G37*
G36*
G01*
X127300000Y-96575000D02*
X127500000Y-96575000D01*
G75*
G02*
X127600000Y-96675000I0J-100000D01*
G01*
X127600000Y-97600000D01*
G75*
G02*
X127500000Y-97700000I-100000J0D01*
G01*
X127300000Y-97700000D01*
G75*
G02*
X127200000Y-97600000I0J100000D01*
G01*
X127200000Y-96675000D01*
G75*
G02*
X127300000Y-96575000I100000J0D01*
G01*
G37*
G36*
G01*
X127825000Y-96050000D02*
X128750000Y-96050000D01*
G75*
G02*
X128850000Y-96150000I0J-100000D01*
G01*
X128850000Y-96350000D01*
G75*
G02*
X128750000Y-96450000I-100000J0D01*
G01*
X127825000Y-96450000D01*
G75*
G02*
X127725000Y-96350000I0J100000D01*
G01*
X127725000Y-96150000D01*
G75*
G02*
X127825000Y-96050000I100000J0D01*
G01*
G37*
G36*
G01*
X127825000Y-95400000D02*
X128750000Y-95400000D01*
G75*
G02*
X128850000Y-95500000I0J-100000D01*
G01*
X128850000Y-95700000D01*
G75*
G02*
X128750000Y-95800000I-100000J0D01*
G01*
X127825000Y-95800000D01*
G75*
G02*
X127725000Y-95700000I0J100000D01*
G01*
X127725000Y-95500000D01*
G75*
G02*
X127825000Y-95400000I100000J0D01*
G01*
G37*
G36*
G01*
X127825000Y-94750000D02*
X128750000Y-94750000D01*
G75*
G02*
X128850000Y-94850000I0J-100000D01*
G01*
X128850000Y-95050000D01*
G75*
G02*
X128750000Y-95150000I-100000J0D01*
G01*
X127825000Y-95150000D01*
G75*
G02*
X127725000Y-95050000I0J100000D01*
G01*
X127725000Y-94850000D01*
G75*
G02*
X127825000Y-94750000I100000J0D01*
G01*
G37*
G36*
G01*
X127825000Y-94100000D02*
X128750000Y-94100000D01*
G75*
G02*
X128850000Y-94200000I0J-100000D01*
G01*
X128850000Y-94400000D01*
G75*
G02*
X128750000Y-94500000I-100000J0D01*
G01*
X127825000Y-94500000D01*
G75*
G02*
X127725000Y-94400000I0J100000D01*
G01*
X127725000Y-94200000D01*
G75*
G02*
X127825000Y-94100000I100000J0D01*
G01*
G37*
G36*
G01*
X127825000Y-93450000D02*
X128750000Y-93450000D01*
G75*
G02*
X128850000Y-93550000I0J-100000D01*
G01*
X128850000Y-93750000D01*
G75*
G02*
X128750000Y-93850000I-100000J0D01*
G01*
X127825000Y-93850000D01*
G75*
G02*
X127725000Y-93750000I0J100000D01*
G01*
X127725000Y-93550000D01*
G75*
G02*
X127825000Y-93450000I100000J0D01*
G01*
G37*
G36*
G01*
X127825000Y-92800000D02*
X128750000Y-92800000D01*
G75*
G02*
X128850000Y-92900000I0J-100000D01*
G01*
X128850000Y-93100000D01*
G75*
G02*
X128750000Y-93200000I-100000J0D01*
G01*
X127825000Y-93200000D01*
G75*
G02*
X127725000Y-93100000I0J100000D01*
G01*
X127725000Y-92900000D01*
G75*
G02*
X127825000Y-92800000I100000J0D01*
G01*
G37*
G36*
G01*
X127825000Y-92150000D02*
X128750000Y-92150000D01*
G75*
G02*
X128850000Y-92250000I0J-100000D01*
G01*
X128850000Y-92450000D01*
G75*
G02*
X128750000Y-92550000I-100000J0D01*
G01*
X127825000Y-92550000D01*
G75*
G02*
X127725000Y-92450000I0J100000D01*
G01*
X127725000Y-92250000D01*
G75*
G02*
X127825000Y-92150000I100000J0D01*
G01*
G37*
D19*
X125450000Y-94300000D03*
%TD*%
D20*
%TO.C,Y1*%
X127250000Y-103550000D03*
X127250000Y-101350000D03*
X125650000Y-101350000D03*
X125650000Y-103550000D03*
%TD*%
M02*
